<?xml version="1.0" encoding="UTF-8" standalone="no"?>
<svg
   enable-background="new 0 0 500 500"
   version="1.1"
   viewBox="0 0 249.70274 234.11436"
   id="svg68"
   sodipodi:docname="rose-2.svg"
   inkscape:version="1.3 (0e150ed6c4, 2023-07-21)"
   width="249.70274"
   height="234.11436"
   xmlns:inkscape="http://www.inkscape.org/namespaces/inkscape"
   xmlns:sodipodi="http://sodipodi.sourceforge.net/DTD/sodipodi-0.dtd"
   xmlns="http://www.w3.org/2000/svg"
   xmlns:svg="http://www.w3.org/2000/svg">
  <defs
     id="defs68" />
  <sodipodi:namedview
     id="namedview68"
     pagecolor="#ffffff"
     bordercolor="#000000"
     borderopacity="0.25"
     inkscape:showpageshadow="2"
     inkscape:pageopacity="0.0"
     inkscape:pagecheckerboard="0"
     inkscape:deskcolor="#d1d1d1"
     inkscape:zoom="1.642"
     inkscape:cx="133.98295"
     inkscape:cy="112.97199"
     inkscape:window-width="1920"
     inkscape:window-height="1017"
     inkscape:window-x="1912"
     inkscape:window-y="-8"
     inkscape:window-maximized="1"
     inkscape:current-layer="svg68" />
  <g
     fill="#231f20"
     id="g68"
     transform="translate(-19.72084,-247.875)">
    <path
       d="m 57.4,302.8 c 0,3.9 -0.7,8.5 0.2,12.3 0.4,1.9 1,3.3 1.1,5.3 0.2,2.1 0.8,4.2 1.6,6.1 3.1,7.1 8.5,12.5 14,17.7 5.6,5.3 12.3,10.4 19.5,13.3 1.8,0.7 3.5,1.2 5.2,2.3 1.3,0.8 2.9,0.9 4.1,1.9 1.6,1.4 1.7,7.8 -1.4,7.1 -1.2,-0.3 -2.4,-1.2 -2.7,-2.5 -0.3,-1.3 0.6,-2.7 0.1,-3.9 -0.5,-1.3 -3.2,-1.6 -4.3,-2.1 -2.1,-0.8 -4.1,-1.8 -6.2,-2.8 -3.7,-1.8 -7.6,-3.1 -11.4,-4.5 -4.2,-1.5 -8.2,-3.1 -12.6,-3.6 -3.5,-0.4 -7.8,-0.8 -11.3,-0.1 -2.8,0.5 -6.9,3.1 -8,5.9 -1.3,3.5 0.2,8.2 0.5,11.7 0.1,1.6 0,3.3 0.6,4.9 0.8,1.8 2.5,2.7 3.9,4 2.9,2.7 5.5,6.1 7.5,9.5 2.2,3.6 2.1,7.9 4.8,11.2 2.5,2.9 5.9,4.8 9.3,6.4 2.5,1.2 2.2,-0.1 2.4,-2.5 0.2,-2.3 0.3,-5.1 1.4,-7.2 3.6,-6.9 12.6,-9.9 19.8,-10.9 5,-0.7 10.1,-0.4 15.1,0.3 2.3,0.3 4.5,0.4 6.9,0.1 0.7,-0.1 1.5,-0.3 2.2,-0.2 0.7,0.1 1.3,0.8 2,1 0.2,-2.9 -1.7,-2.2 -3.8,-3.4 -0.9,-0.5 -1.7,-0.8 -1.9,-1.8 -0.1,-0.6 0.3,-1.9 0.8,-0.8 1.2,2.4 4.1,-2.2 5.2,-0.5 1.2,1.9 4.5,1 6.3,1.9 -1.7,1.2 -2.1,1.4 -2,3.5 1.1,-0.1 1.9,-1.4 2.9,-2 0.6,2.4 -2.3,4.4 -3.9,6.1 -1.8,1.9 -4.1,3.4 -6.6,4.2 -2.5,0.8 -5.2,1.1 -7.8,0.7 -1.3,-0.2 -2.6,-0.6 -3.9,-1.1 -1,-0.5 -2.8,-0.2 -3.5,-1.3 -1.3,-2.2 2.3,-4.6 4.1,-4.8 3.8,-0.4 0.8,3.1 0.5,4.6 -0.3,1.5 6.1,1.2 7,1.1 3.7,-0.4 6.2,-1.8 8.6,-4.5 -1.7,0 -3,0 -4.7,0.4 -1.5,0.3 -2.8,-0.1 -3.8,-1.3 -0.6,-0.7 -4.2,-0.4 -5.2,-0.5 -2.5,-0.2 -5.1,-0.4 -7.7,-0.5 -7.7,-0.2 -16.7,1.2 -22.4,6.9 -1.1,1.1 -2.7,2.3 -3.2,3.8 -0.6,1.8 -0.7,4 -0.8,5.9 -0.3,4.6 0.3,9 1.5,13.5 1,3.9 2.1,8 3.9,11.6 1.3,2.6 3.7,7.9 6.9,8.4 1.9,0.3 2.4,0.4 3.2,2.3 0.6,1.5 1.7,2.8 2.8,3.9 2.8,2.6 6.2,4.9 9.2,7.2 3.2,2.4 6.5,4.4 9.8,6.6 3.2,2.1 5.7,5.2 9,7 3.5,2 3.9,-2 4.2,-4.6 0.5,-4.1 0.9,-8.1 1.4,-12.2 0.4,-3.9 1.9,-7.6 2.2,-11.5 0.3,-4.4 2,-8.4 3.1,-12.7 0.3,-1.4 1.6,-3.5 1.2,-4.9 -0.4,-1.5 -2.2,-2.5 -3.1,-3.7 -2.3,-3.4 -2.5,-7.8 -3.1,-11.7 -0.1,-0.7 0.8,-2.7 1.2,-1.2 0.5,2 0.8,4 1.3,6 1,4.3 3.2,6.7 6.4,9.6 2.6,2.4 4.4,5.3 7.2,7.6 3.3,2.6 6.4,5.4 9.6,8.1 3,2.5 6,5.1 9.3,7.1 3.8,2.2 7.6,2.2 11.8,2.4 4.1,0.2 7.2,-0.7 11,-2.2 4.1,-1.7 7,-0.1 10.3,2.3 3,2.2 6.4,3 9.6,0.9 3.8,-2.6 7.7,-5.1 11.6,-7.6 3,-2 7.3,-3.5 7.8,-7.4 0.2,-1.8 0.7,-3.5 1.6,-5.1 0.8,-1.4 1.9,-3 1.1,-4.7 -1.5,-3.1 -6.6,-4 -9.6,-4.1 -4.5,-0.3 -8.9,0 -13.3,0.8 -8.4,1.4 -16.5,2.7 -25.1,3 -1.4,0 -1.8,-1.2 -3,-1.3 -1.2,-0.1 -2.2,1.5 -3.3,0.9 -1.1,-0.6 -1.2,-2.1 -0.9,-3.2 0.4,-1.7 2.5,-2.1 4,-2.4 1.4,-0.2 2.5,0.2 2.7,1.8 0.2,1.9 0,1.9 2.2,1.8 4.7,-0.3 9.3,-0.4 14,-1.1 4.1,-0.7 8,-2 12.1,-2.4 4.5,-0.5 9,-0.2 13.5,0 2.7,0.2 7.3,2.3 8.9,4.6 2,2.9 -1.3,7 -2,9.8 -0.4,1.6 -0.2,3.4 -0.8,4.9 -0.6,1.5 -2.3,2.2 -3.6,3 -3.6,2.3 -7,5 -10.7,7.3 -6.8,4.1 -13.1,8.7 -21.3,8.6 -3.9,-0.1 -7.9,-0.9 -11.6,-2.3 -1.6,-0.6 -2.2,-1.5 -3.4,-2.7 -1.2,-1.3 -3.6,-1 -5.2,-1.1 -1.2,-0.1 -3.6,0.2 -4.6,-0.4 -1.5,-0.9 -3.1,-1.4 -4.8,-1.9 -1.7,-0.5 -3.3,-0.9 -4.9,-1.5 -1.3,-0.5 -2.4,-1.5 -3.8,-1.8 0.3,2.6 3.1,6 4.9,7.8 2.7,2.8 7.2,5.4 10.8,6.9 1.5,0.6 3.2,0.4 4.7,1 1.5,0.7 2.8,1.9 4.3,2.7 3.8,2.2 7.4,2.3 11.7,2.1 4,-0.2 8.4,0 12.3,-0.9 4.5,-0.9 8.3,-2.4 13,-1.6 4,0.6 7.5,0 11.2,-1.2 1.9,-0.6 4,-1 6,-1 1,0 2.1,0.1 3.1,0.3 0.9,0.2 2.2,0.9 3.1,0.7 1.1,-0.3 1.2,-3.3 1.4,-4.1 0.5,-2 1,-3.9 1.6,-5.9 1.1,-3.8 4,-7.4 6.4,-10.5 2.4,-3 5,-5.9 7.2,-9.1 1,-1.5 2.2,-3.2 2.9,-4.9 0.5,-1.4 -2.5,-1.4 -3.3,-1.5 -1.6,-0.4 -3.7,-0.6 -5.2,-1.5 -1.4,-0.8 -2.4,-2.5 -3.3,-3.8 -2.2,-3.1 -3.9,-7.2 -2.3,-11 1.4,-3.5 2.3,-5.1 -1.2,-7.6 -3.7,-2.6 -7.2,-3.6 -11.7,-4.3 -8.9,-1.4 -17.9,-1.7 -26.9,-2.4 -3.7,-0.3 -7.9,-0.4 -11.5,-1.5 -1.4,-0.4 1.5,-1 1.8,-1 l 7.2,0.6 c 8.5,0.7 17.3,0.5 25.7,1.9 7.3,1.2 17.4,1.6 20.4,9.8 0.6,1.6 1.8,2.8 2.5,4.3 0.8,1.7 1,3.5 1.6,5.3 0.5,1.7 1,3.7 1.9,5.2 0.5,1 2.8,3.2 4,3.1 0.9,-0.1 1.9,-3.6 2.2,-4.3 l 2.1,-5.4 c 1.7,-4.1 3.9,-6.9 3.7,-11.5 -0.2,-4 1,-7.7 1.2,-11.6 0.1,-2 -0.9,-3.1 -1.5,-4.9 -0.7,-1.9 -0.1,-4.4 -0.2,-6.4 -0.2,-8.4 -1.3,-17.9 -4.1,-25.9 -1.4,-3.9 -3.1,-8.7 -5.8,-11.8 -2.7,-3 -6.9,-3.9 -10.7,-4.7 -10.1,-2 -20.4,-0.2 -30.3,1.8 -9.4,1.8 -17.3,7.8 -25.2,12.9 -4.2,2.7 -8.2,5 -12.7,7 -1.7,0.8 -3.5,1.6 -5,2.8 -1.6,1.2 -2.4,3.1 -4,4.3 -0.6,-3.3 3.1,-5.6 5.6,-6.8 3.6,-1.9 7.4,-3.2 10.9,-5.4 7,-4.5 13.8,-9.8 21.5,-13.1 1.8,-0.8 3.6,-1.4 5.5,-1.9 1.2,-0.4 3.5,-0.6 4.4,-1.6 0.5,-0.5 0.2,-1.3 0.4,-1.9 0.3,-0.9 0.8,-1.6 1.1,-2.5 0.6,-2.1 0.3,-4.1 0.3,-6.3 0,-1.9 0.9,-3.5 0.7,-5.4 -0.2,-1.9 -0.7,-3.7 -1.2,-5.6 -1.1,-4.1 -1.3,-8.7 -3.9,-12.2 -2.3,-3 -4.1,-5.7 -7.4,-7.7 -1.2,-0.7 -3,-1.4 -3.2,-3 -0.3,-1.5 0.6,-2.5 1.2,-0.7 0.4,1.3 2.1,1.6 3.2,2.2 1.5,0.7 2.9,1.8 4,3.1 2.5,3 4.8,6.1 6.1,9.8 1.3,3.8 2.1,7.8 2.9,11.7 0.4,2 0.6,4.1 0.1,6.2 -0.5,2 -0.2,3.7 -0.3,5.7 -0.1,1.8 -0.6,3.6 -1.5,5.3 -1,1.9 2.3,0.9 3,0.8 4.6,-0.7 9.3,-1.6 13.9,-1.8 7.1,-0.4 17.5,0.5 22.6,6.2 5.3,5.8 6.5,15 8.3,22.3 1,4.2 1.7,8.4 1.9,12.7 0.1,2.2 0,4.4 0.1,6.5 0.1,2.3 0.8,3.6 1.4,5.6 1.2,3.6 -0.5,8.3 -0.8,11.9 -0.1,2 0.1,4.1 -0.3,6.1 -0.4,2.2 -1.8,4.3 -2.7,6.3 -1.7,3.5 -4.5,7.4 -5.3,11.2 -0.4,1.7 0,3.4 -0.5,5.2 -0.6,2 -1.7,3.7 -2.9,5.4 -5.1,6.9 -10.4,13 -14.1,20.7 -1.3,2.8 0.7,6.7 -0.9,9.3 -0.6,1 -1.9,0.5 -2.8,0.4 -1.1,-0.1 -0.8,1.5 -1.9,1.9 -1.8,0.7 -3.8,1 -5.7,0.8 -1.9,-0.2 -3.5,-1.1 -5.4,-1.5 -1.7,-0.3 -3.6,0.4 -5.2,0.4 -2.4,0.1 -4.8,-0.3 -7.2,-0.3 -4.6,0.1 -8.9,1.4 -13.4,2 -4.3,0.6 -9,1 -13.4,0.9 -3.8,-0.1 -7.4,-1.4 -10.6,-3.5 -3.5,-2.2 -7.5,-2.9 -11,-5 -3.1,-1.8 -6.1,-4.2 -8.4,-7 -1.1,-1.2 -2,-2.6 -2.7,-4 -0.8,-1.5 -1.1,-3.7 -2.2,-5 -1,-1.1 -2.7,-1.8 -3.9,-2.9 -1.4,-1.3 -2.5,-2.9 -3.5,-4.6 -1.9,-3.5 -3.7,-6.9 -7,-9.3 -1.1,2 -1.5,4.2 -2.1,6.3 -0.5,1.9 -1.4,4 -1.6,6 -0.6,5.1 -1.9,10.1 -2.8,15.2 -0.9,4.7 -0.8,9.6 -1.8,14.3 -0.4,1.6 -0.8,3.5 -2.2,4.5 -1.5,1.1 -2.9,0.3 -4.5,0.3 1.1,3.1 3.2,6.7 6.6,7.6 4,1 5.4,2.6 7.9,5.7 1.4,1.7 6.3,-0.8 8,-1.1 2,-0.4 4.1,-0.7 6.1,-0.8 1.5,-0.1 3.3,0.2 4.7,-0.3 1.7,-0.6 0.4,-4.4 0.3,-5.6 -0.1,-2.6 1,-4.1 3.2,-5.4 3,-1.6 6.5,-1.4 9.4,-2.9 1.3,-0.7 2.3,-1.8 2.9,-3.2 0.4,-1 1.7,-4 2.9,-2.1 1.3,1.9 -1,7 -2.1,8.8 -0.8,1.3 -2.4,2.1 -3.1,3.5 -1,1.9 -1.4,2.9 -3.4,4.1 -6.3,3.4 -11.8,11.2 -19.8,9.7 -3.4,-0.6 -7,0.2 -10.3,-0.8 -3.2,-0.9 -6.9,-3 -9.7,-4.9 -3,-2 -4.5,-5.1 -6.8,-7.8 -2.6,-2.9 -5.8,-5.2 -8.5,-8.1 -5.6,-6 -12,-10.6 -18.5,-15.5 -1.3,-1 -1.9,-2.6 -2.3,-4.1 -0.2,-0.8 -0.3,-1.6 -0.5,-2.4 -0.1,-0.4 0.5,-0.9 0.4,-1.3 -0.1,-0.3 -3,-0.9 -3.5,-1.2 -1.6,-1 -2.6,-2.5 -3.6,-4 -1.1,-1.6 -2.1,-3.3 -2.9,-5 -0.4,-0.9 -0.9,-4.2 -1.8,-4.6 -0.8,-0.4 -3.4,1.3 -4.2,1.7 -2,0.8 -4,1.8 -6.2,1.1 -3.6,-1.1 -6.7,-2.2 -10,-4 -3.4,-1.9 -7.5,-2.1 -10.7,-4.6 -6.4,-5.1 -10.1,-12.1 -14.8,-18.6 -2.2,-3.1 -4.5,-6.2 -6.2,-9.6 -1.9,-3.7 -3.2,-7.9 -4.4,-11.8 -1.2,-4 -1.2,-7.9 -0.9,-12.1 0.1,-1.9 0.8,-3.7 0.8,-5.5 0.1,-2.1 -1.1,-3.4 -1.3,-5.4 -0.4,-3.6 -0.1,-7.6 0.6,-11.2 0.3,-1.6 0.1,-3.4 1,-4.9 0.9,-1.6 1.5,-3.2 2.4,-4.8 1.7,-3 4.4,-4 7.1,-5.7 2.7,-1.7 3.9,-4.9 7.2,-5.9 1.5,-0.4 2.9,-0.1 4,-1.4 1,-1.2 2.3,-2.1 3.7,-2.7 3,-1.2 6.5,-1.1 8.8,1.4 -3.5,-0.4 -6.6,-1.3 -9.7,0.9 -1.2,0.8 -1.9,2.6 -3.4,3 -1.8,0.4 -3.3,0.1 -4.9,1.2 -1.3,0.9 -2,2.2 -3,3.4 -1.1,1.3 -2.6,2 -4.1,2.7 -1.3,0.6 -2.5,1.5 -3.5,2.6 -1.2,1.4 -1.1,3.8 -2.3,4.9 -1.2,1.2 -1.4,2.9 -1.5,4.5 -0.1,1.8 -1,3.4 -0.9,5.2 0.1,2 0.1,3.8 0,5.8 -0.1,2 1.6,3.3 1.7,5.2 0.1,1.8 -0.8,3.5 -1.1,5.3 -0.3,2 -0.4,4.1 -0.3,6.1 0.1,4.1 1.9,7.9 3.1,11.8 2.5,7.8 7.5,13.8 12,20.6 4.1,6.2 9.1,13 16.4,15.8 1.3,0.5 3.7,0.6 4.7,1.5 1.3,1.2 3,2 4.7,2.6 1.7,0.6 3.5,1.4 5.3,1.7 2.5,0.4 4.2,-0.7 6.4,-1.6 1.2,-0.5 3.2,-0.6 2.7,-2.4 -0.5,-1.7 -0.9,-3.5 -1.3,-5.3 -0.4,-1.7 -0.5,-3.7 -1,-5.3 -0.5,-1.6 -3.1,-1.9 -4.4,-2.5 -3.7,-1.5 -7.3,-4.2 -9.7,-7.4 -2.5,-3.3 -2.4,-7.8 -4.6,-11.4 -2.3,-3.8 -5.7,-7.6 -9,-10.5 -3.5,-3.1 -2.3,-6.8 -2.8,-10.9 -0.5,-4.2 -2.4,-8.4 0.7,-12 2.3,-2.7 5.2,-4.9 8.9,-5.3 4.2,-0.5 9.3,-0.2 13.5,0.5 2.2,0.4 4.4,1 6.6,1.8 1.7,0.6 4,2.1 5.8,2 -0.9,-1.7 -2.8,-3.1 -4.1,-4.5 -1.5,-1.5 -3,-3.1 -4.6,-4.6 -1.5,-1.5 -3,-3.1 -4.5,-4.6 -1.3,-1.4 -1.9,-3.7 -3.2,-5 -2.5,-2.3 -3.2,-5.8 -4.8,-8.7 -0.9,-1.5 -0.7,-4.1 -0.9,-5.8 -0.3,-2.5 -0.5,-5.1 -0.7,-7.6 -0.6,-8.8 -0.7,-18.1 1.2,-26.7 0.4,-2 1,-4 1.5,-6 0.4,-1.6 0.6,-3.8 1.6,-5.2 2.3,-3.1 5.7,0.7 8,-1.7 2.4,-2.5 3.4,-6.2 5.7,-8.8 2.4,-2.7 6.3,-2.9 9,-5 3,-2.3 6.2,-4.4 9.4,-6.4 3.8,-2.4 7.7,-3.1 12,-3.7 4,-0.5 8.3,-0.7 12.2,0.2 1.5,0.4 3,1.1 4.1,2.2 1.6,1.7 3.3,2 5.4,2.8 7.1,2.7 13.2,7.7 15.9,14.9 0.4,1.1 -0.8,2.1 -1.6,1.1 -1,-1.3 -1.5,-2.7 -2.3,-4.1 -1.3,-2.2 -3.3,-4 -5.2,-5.6 -4,-3.4 -9.2,-4.5 -13.4,-7.4 -2.5,-1.8 -4.5,-2.3 -7.6,-2.6 -3,-0.3 -6.1,-0.1 -9.1,0.2 -6.3,0.6 -11.2,3.8 -16.3,7.4 -2.5,1.8 -4.5,3.1 -7.4,4.2 -2.2,0.8 -3.9,2.4 -5.2,4.2 -1.6,2.1 -3,4.5 -4.6,6.6 -1.9,2.6 -3.1,1.7 -5.9,1.6 -1.8,-0.1 -2.3,1.6 -2.6,3.1 -0.7,2.9 -1.6,5.7 -2.3,8.6 -0.9,0.6 -2.2,17.1 -2,17.1 z m 100,165.5 c 0.2,1.9 0.1,4.2 0.7,6 2,-0.8 3.8,-2.5 5.6,-3.7 1.9,-1.3 2.7,-2.4 4,-4.2 1.1,-1.5 2.7,-2.3 3.5,-4.1 0.6,-1.3 1.7,-3.6 1.4,-5.1 -2.2,2.6 -3.4,4.7 -7.1,5.2 -2.9,0.5 -8.6,1.9 -8.1,5.9 z m 35.6,-23 c 2,-0.4 6.1,-0.5 7.5,-1.8 -1.3,-1 -3.2,-1.3 -4.5,-2.2 -1.7,-1.2 -3.1,-2.7 -5.2,-3.1 -2.2,-0.4 -4,0.4 -5.9,1.4 -2.1,1.1 -4.5,1 -6.7,1.8 3,3.4 10.5,3.6 14.8,3.9 z m 52.2,-42.2 c 0.7,2.8 2.4,6.7 4.6,8.7 1.6,1.5 5.4,3.1 7.5,2.3 -2.3,-2.1 -4.7,-2.8 -5.9,-6.1 -0.7,-1.9 -1.3,-3.8 -2,-5.7 -0.5,-1.3 -0.8,-3.2 -2.2,-3.8 -0.9,1.6 -1.9,2.8 -2,4.6 z m -122,65.8 c -1.1,-2.2 -2.8,-4 -4.3,-6 -0.5,-0.6 -1.1,-1.1 -1.6,-1.8 -0.4,-0.7 -0.1,-1.6 -0.5,-2.1 -1.4,-1.8 -4,-3.4 -5.9,-4.7 -2.4,-1.7 -5.2,-4.1 -8,-5 1.1,1.8 3.3,3 4.7,4.4 2,2 3.9,4.1 6,6.1 1.7,1.7 3.6,3.2 5.3,4.8 1.3,1.3 2.5,3.9 4,4.8 0.1,-0.2 0.2,-0.4 0.3,-0.5 z m 29.2,7.3 c -0.1,-0.7 -11.6,1.4 -12.8,2.5 1.2,0.6 2.6,0.1 3.9,0.2 1.5,0.2 2.8,0.8 4.3,0.8 3.1,0 5.4,-1.5 7.8,-3.3 -1.1,-0.2 -2.1,-0.2 -3.2,-0.2 z m -27,-4.3 c -0.6,0.3 3.3,2.5 3.8,2.8 1.5,0.9 3.6,2.8 5.4,2.7 -1.3,-4.2 -5.4,-4.7 -9.2,-5.5 z M 233,452.4 c -1.4,0.2 -3.8,0 -4.9,1 1.9,1.5 6.3,1.4 8.2,0 -0.7,-0.8 -2.2,-0.8 -3.3,-1 z M 90.7,439.1 c -0.2,2.1 2.1,3.3 3.6,4.3 1.6,1.1 3.5,2.9 5.4,3.6 -0.5,-1.5 -3.1,-3.1 -4.3,-4.1 -1.5,-1.2 -3.1,-3 -4.7,-3.8 z m 55.7,-13.2 c -1.1,0.5 1,1.8 1.4,2.1 1,0.8 2.5,2.8 3.8,2.7 -1.2,-1.7 -3.5,-3.6 -5.2,-4.8 z"
       id="path36" />
    <path
       d="m 146.3,344.3 c 0.5,-1 1.6,-2.5 1.6,-3.6 0,-2.6 -2,1.4 -2,1.5 -1.4,2.5 -4.1,1.5 -3.9,-0.9 0.4,-0.7 0.8,-1.4 1.4,-2 1.1,-1 1.5,-0.2 2.7,-0.7 0.8,-0.3 1.2,-1.3 2,-1.6 1.1,-0.4 1.9,-0.3 2.8,-1.1 -1.6,-1.3 -3,-2.7 -4.4,-4.2 -0.7,-0.8 0.2,-2.3 1.3,-1.9 1.3,0.6 2.8,0.1 4.2,0.5 1.9,0.6 1.5,1 2.8,-0.7 0.9,-1.1 1.8,-2.3 1.9,-3.8 0.1,-1.4 1.6,-2.2 2.9,-2.2 2.5,0.1 2.4,5.5 0.7,6.5 -1.8,1.1 -2.4,-0.2 -3.7,-1 -1,-0.6 -2.3,2.8 -2.7,3.3 -0.5,0.8 -2.7,3.4 -2.1,4.3 0.7,1.1 2.1,1.7 1.7,3.3 -0.3,1.4 -2.1,1.4 -2.5,2.5 -0.4,1.1 1.2,2.2 -0.1,3.4 -1.1,1 -2.6,0.3 -2.7,2.2 -0.2,1.9 -0.6,3.8 -0.4,5.6 1.5,-0.8 3.2,-2.4 5,-1.7 1.8,0.7 1.2,2.6 2.3,3.8 1.7,1.9 2.5,0 2.7,-1.7 0.2,-1.8 -1.3,-0.9 -2.4,-0.8 1.1,-2.4 5.1,-3.5 5.7,-6 0.3,-1.2 -1.2,-1.8 -1.4,-2.9 -0.2,-0.9 1,-2.2 1.6,-2.7 1.9,-1.4 5.1,-0.9 5.6,1.6 0.6,3.2 -2,3.5 -3.9,5 -1,0.8 -1,2.1 -1.6,3.1 -0.7,1.2 -2.1,2.4 -2.3,3.8 -0.4,2.7 -1.4,5.3 -3.4,7.2 -2,1.9 2.5,1.9 3.4,3.1 1.3,1.8 -0.9,3.9 -1.6,4.9 -2.4,0.1 -3,2.7 -5.2,2.7 -0.8,0 -2.1,-0.8 -2.6,0.2 -0.6,1.2 -1,2.4 -2.2,3.2 -2.2,1.5 -5.7,4 -8.5,3.3 -2.3,-0.6 -4.9,-3.2 -4.1,-5.7 0.9,-2.7 2.7,-1.6 4.4,-3.3 1.9,-1.8 1.4,-4.5 -1.2,-5.4 -2.3,-0.8 -7,-0.4 -9.2,0.6 -2.5,1.1 -2.9,3.7 -4.2,5.8 -0.1,-0.9 -0.3,-1.7 0,-2.6 0.2,-0.6 0.8,-1.3 0.2,-1.7 -1.2,-1 -0.5,0.6 -1.5,0.2 -0.5,-0.2 -1.1,-1 -1.5,-1.4 -1.1,-1.1 -2.2,0.4 -2.1,1.6 0.1,1.6 2.3,2.2 2.7,3.7 -1.8,0.2 -2.8,-1.4 -4.5,-1.7 -1.3,-0.2 -4.6,1.3 -3.9,-1.7 0.4,-2 -1.7,-3.9 -2.6,-5.4 -0.4,-0.6 -1.3,-2.7 -2.3,-2.6 -0.7,0 -1.7,0.5 -2.1,-0.4 -0.9,-1.7 0.1,-2.8 -0.2,-4.5 -0.2,-0.8 -1.4,-4.2 -2,-4.5 -0.9,-0.5 -3.7,-2 -1.5,-3.2 1.1,-0.6 3.6,-0.2 3.6,-1.5 0,-2.6 0,-5.1 0.1,-7.7 0.1,-1.7 -3,-2.6 -1.4,-3.8 0.9,-0.7 4.6,-1.7 5.2,0 0.6,1.9 -2.4,2 -3,3.1 -0.6,1.1 0,3.3 0,4.5 0.1,2.2 0.6,4.4 1.4,6.5 0.9,2.2 2.3,3.9 3.8,5.6 1.6,1.8 2.9,3.8 4.8,5.4 -1.3,-5.4 -4.8,-10.8 -2.2,-16.5 0.5,1.8 0.3,3.8 0.6,5.7 0.3,2.2 0.9,4.3 1.7,6.3 1.4,3.4 3.2,8 5.7,10.7 -0.4,-3.1 -2.7,-6.4 -4,-9.3 -1,-2.3 -3.8,-7.7 -2.1,-10.1 1.3,1.6 1.5,4.9 2.4,6.9 1,2.4 2.2,4.6 3.3,7 0.9,1.9 1.5,3.8 2.3,5.7 0.3,0.7 1.4,-0.2 1.6,-0.5 0.6,-0.9 -1.2,-3 -1.6,-3.8 -1.3,-2.4 -2.4,-4.7 -3.3,-7.3 -0.3,-0.8 -0.4,-1.6 -1,-2.2 -0.7,-0.8 -2.1,-0.9 -2,-2.2 0.1,-1.1 1.2,-1.7 1.7,-2.6 0.4,-1 0.5,-2 0.4,-3.1 -0.1,-2.1 -0.7,-5.6 0.7,-7.3 1.1,1.7 0.5,4.7 0.4,6.7 0,0.8 -0.6,2.5 0.2,3.1 0.4,0.3 1.8,0.7 1.8,-0.1 0.2,-2.4 0.2,-4.9 0.4,-7.4 0.2,-2.9 0,-6.2 1,-8.8 0.8,1.9 0.4,3.9 0.2,5.9 -0.2,1.8 -1.1,5 0.8,6.2 1.2,0.8 4.4,0.3 3.8,2.2 -0.8,2.7 -2.2,2.6 -4.6,1.9 0.1,2.1 0.7,4.1 1.2,6.1 0.5,2 1.8,4.9 1,6.8 -2.7,-1.8 -2.2,-6.8 -3.4,-9.5 -2.7,1.9 -1.3,3.6 -0.1,6.2 0.8,1.7 2.3,7.5 4.4,7.8 1.2,0.2 2.1,-0.2 1.8,-1.3 -0.4,-1.5 -1.4,-2.7 -1.7,-4.4 -0.3,-2.1 -0.5,-6.3 0.9,-8 1,1.9 0.4,4.4 0.7,6.5 0.2,1.9 0.8,4.4 1.9,6 0.9,1.3 4.1,1 5.4,1.2 2.6,0.3 1.7,-2 1.6,-3.8 -0.2,-3.6 4.2,-2.8 5.4,-5.6 0.8,-1.7 0.7,-3.8 1.1,-5.6 0.8,-1.9 1.1,-3.6 0,-4.9 z m 7,10.7 c -0.5,-1.2 -0.6,-2 -2.1,-1.3 -1.4,0.6 -2.1,1.7 -3.2,2.5 -1.3,1 -2.7,1.3 -4.1,1.9 -1.8,0.8 -1.6,2.5 -1.7,4.2 -0.1,0.8 -0.3,2.2 0.6,2.7 1,0.5 2.2,-0.4 3.2,0.1 1.4,0.7 -1.1,3.2 1.4,3 0.8,-0.1 2.4,-1.5 2.9,-0.3 0.4,1.2 0.3,1.9 1.3,2.8 1.2,1.1 2,-1.2 2.6,-1.9 0.8,-1 2.2,0.3 3.2,-0.9 1.2,-1.4 0.3,-2.2 -1.1,-2.4 -0.7,-0.1 -3.2,0.2 -3,-1.2 0.3,-1.6 1.7,-3.2 2.6,-4.5 1.4,-2.5 -3.5,-1.6 -2.6,-4.7 z m -13,22.7 c 3.6,-1.2 7.3,-1.9 8.3,-6.1 0.4,-1.5 -0.9,-1.1 -2,-1.2 -1.8,-0.2 -1.8,-1.3 -2.6,-2.6 -1.2,-2 -2,1.1 -2.3,1.7 -0.5,1.4 -1.5,2.6 -2.9,3.2 -1.4,0.5 -3.2,0.4 -2.6,2.5 0.5,1.6 2.4,2.5 4.1,2.5 z m -29.5,-19.5 c 0.5,1.4 6.8,11.2 7.4,6.6 0.3,-2.1 -2.1,-4.2 -3.4,-5.7 -1.5,-1.7 -3.1,-3.4 -4.4,-5.3 -0.7,-0.9 -1.3,-1.9 -1.9,-2.9 -0.3,-0.6 -0.8,-2.5 -1.4,-2.9 -1.4,-0.8 -0.8,3.8 -0.6,4.2 1,1.8 2.7,1.6 4.1,2.7 1.1,0.9 0.4,2.3 0.2,3.3 z"
       id="path37" />
    <path
       d="m 157.4,370.4 c 1.9,-1.4 9.4,-7.7 10.1,-2 0.3,2.4 -2.5,3.4 -4.2,4.3 -2.7,1.5 -5.5,3 -8.3,4.3 4.8,0.2 9.9,-2.8 14.1,-4.9 1.5,-0.8 2,-3.6 3.5,-4.7 0.8,-0.6 2.2,-1.3 3,-0.4 0.9,1 2.2,-0.1 2,-1.2 -0.1,-1.4 0.1,-2.8 1.5,-3.3 2.2,-0.8 4.1,0.9 6.1,-0.2 2.1,-1.1 3.9,-2.7 5.9,-4 2.2,-1.4 -0.3,-2.7 0.7,-4.5 0.9,-1.5 3,-2.7 4.7,-2 1.5,0.6 0.9,4.6 0,5.6 -0.5,0.6 -1.2,1.5 -2,1.8 -0.9,0.3 -1.6,-0.3 -2.5,-0.2 -1.7,0.3 -3.7,2.6 -5,3.6 -0.7,0.5 -1.4,1 -2,1.6 -0.8,0.7 -0.3,1.3 -0.3,2.2 -0.1,2.2 -3.4,1.1 -4.6,1.2 -2.3,0.2 -4.1,2.1 -5.7,3.5 -1.8,1.6 -4.7,3.5 -5.7,5.6 1.4,0.4 9.9,1 10.2,-0.5 0.2,-1.1 0,-2.5 1.4,-2.9 2.1,-0.6 2.6,1.3 2.9,2.9 0.4,1.8 6.4,1.8 7,0.3 0.6,-1.4 -0.1,-2.3 1.6,-3.3 0.6,-0.3 1,0 1.2,0.6 0,-0.2 2.2,-0.2 2.3,-0.2 -0.2,1.2 -0.6,1.3 -1,2.2 -0.4,0.8 2.1,0.1 2.1,0.8 0.1,1.3 -7.5,1.8 -8.5,1.9 -1.5,0.2 -3.4,-0.3 -4.8,0.1 -0.4,0.1 -1.5,0.8 -2,0.7 -0.8,-0.2 -1.6,-0.2 -2.4,0.1 -2.3,0.8 -4.7,3 -6.3,4.4 -3.4,1.4 -7.1,1.7 -10.8,1.6 -2.9,-0.1 -7.8,0.7 -10,-1.3 5.5,-1.5 11.8,1.4 17.2,-0.9 -0.9,-1 -2.1,-2 -1.4,-3.4 0.7,-1.3 2.6,-1.7 3.8,-1.1 0.8,0.4 1.5,2.5 2,2.6 1.1,0.1 4.5,-2.1 5.1,-2.9 -1.5,-0.8 -4,-0.3 -5.7,-0.3 -2.3,-0.1 -4.7,-0.1 -7,0.2 -4.5,0.6 -9.6,2.9 -14,1.4 0.4,-0.1 2.5,-0.2 2.6,-0.7 0.1,-0.6 -1.5,-2.2 -1.7,-2.8 -0.1,-0.4 3.3,-1.1 3.7,-1.2 1.6,-0.7 3.1,-1.6 4.6,-2.6 1.1,-0.7 2.5,-1.2 2.4,-2.7 0,-1.1 -0.3,-2.1 -1.5,-1.2 -2.2,1.7 -6,6.2 -9,6 1.1,-1.8 3.8,-2.8 4.7,-4.1 z m 12.5,3.3 c -1.6,0.2 -3,1.1 -4.5,1.7 -1.4,0.6 -3.4,1 -4.5,2 2.8,1.2 7.4,-1.7 9,-3.7 z"
       id="path38" />
    <path
       d="m 130.3,309 c 0.2,4 0.3,8.1 0.6,12.1 0.1,1.8 0,3.2 -0.9,4.8 -0.6,1 -2.1,3.1 -3,1 -1.2,-2.9 0.1,-6.3 2.5,-8.3 1.1,-0.9 0.4,-4.1 0.3,-5.3 -0.2,-2.1 -0.4,-4.2 -0.4,-6.3 0.1,-4.1 1.8,-7.7 3.3,-11.4 1.6,-3.9 3.3,-7.7 5.4,-11.3 1,-1.8 2.1,-3.6 3.1,-5.5 1,-1.8 1.1,-2.4 0.8,-4.4 -0.1,-0.7 -0.6,-4.8 0.5,-4.3 0.7,0.3 0.7,3.5 1,4.3 1.2,-0.7 1.9,-1.9 3.1,-2.7 1.4,-1 3.1,-1.5 4.6,-2.3 1.6,-0.9 3,-2.2 4.8,-2.8 1.5,-0.5 3.4,0 4.8,-0.8 3.1,-2 7.1,-1.9 10.7,-2.1 4,-0.3 8.1,-0.8 12.1,-0.4 3.3,0.4 6.9,1.5 9.3,3.9 2.2,2.2 2.3,5.4 4.4,7.6 1.1,1.1 2.3,1.4 3.7,2.1 1.8,0.9 0.3,2.1 -1.2,1.5 -3.5,-1.3 -5.1,-4 -6.4,-7.3 -2.7,-7.1 -12.7,-6.8 -18.9,-6.2 -3.7,0.3 -8,0 -11.5,1.3 -1.8,0.7 -3,1.2 -5,1.3 -1.8,0.1 -3.1,1 -4.6,1.9 -3.4,2 -6.9,3.4 -9,6.9 -2.2,3.7 -4.4,7.3 -6.3,11.1 -1.1,1.7 -9.7,21.2 -7.8,21.6 z"
       id="path39" />
    <path
       d="m 151.1,401.4 c 2.1,1.9 4.5,1.7 6.8,2.9 -1.5,1.3 -3.2,-0.1 -4.6,0.8 -1.5,0.9 -0.4,3.7 -3.1,3.6 -1.4,0 -4.4,-2.7 -2.1,-3.6 1.4,-0.6 2.6,-1.7 1.1,-2.7 -1.8,-1.2 -3.5,-2.7 -5.2,-4.1 -0.4,-0.3 -1,-1.1 -1.5,-1.4 -0.5,-0.2 -0.5,1.2 -0.7,1.4 -1.3,1.8 -3.3,0.6 -1.9,3.4 1,2 1.8,5 3.4,6.6 1.2,1.2 2.4,2 2.3,3.9 0,2.2 -1.4,3.6 -3.2,1.9 -0.7,-0.6 -2,-1.8 -1.9,-2.7 0.1,-0.9 1.3,-1.8 1,-2.7 -0.3,-0.8 -1.6,-1.7 -2.2,-2.3 -0.7,-0.8 -1.4,-1.7 -2.1,-2.5 -1.1,-1.1 -3.6,-2 -3.2,-3.9 0.2,-1 1,-1.6 1,-2.7 0,-1.4 -0.1,-2.8 -0.1,-4.1 -0.1,-2.1 -0.8,-4.9 1,-6.5 1.9,-1.6 3.7,-0.8 5.5,0.3 -0.9,0.6 -2,1 -2.4,2 -0.5,1 -1.1,1.9 -2.2,2.1 -2.3,0.5 -0.9,6.8 0.2,8.3 0.6,-2.2 -0.1,-5.4 1.1,-7.3 0.3,0.7 0.1,2.7 1.1,2.8 1.8,0.2 1.1,-2.2 1.2,-3.4 1.5,2 2.8,4.1 4.6,5.9 1.7,1.6 4.3,2.4 6.1,4 z"
       id="path40" />
    <path
       d="m 142,341.2 c -0.4,1 -2,3.4 -1.5,4.4 0.6,1.2 1.9,-0.3 2.5,-0.9 -0.8,3.1 -2.7,5.7 -3.6,8.7 -0.9,3.1 -0.4,6.3 -1,9.4 -2.6,-0.7 -0.7,-8 -0.5,-9.9 0.2,-2.1 0.6,-4.2 1,-6.2 0.4,-2 1.3,-4 1.4,-6.1 -1.2,0.5 -1.6,1.8 -2.9,2.3 -0.6,0.3 -1.3,0.3 -2,0.2 -0.4,-0.1 -1.6,1.6 -1.8,1.9 -1.6,-2.3 -0.8,-5 -0.4,-7.6 0.2,-1.1 0.3,-2.2 0.6,-3.2 0.3,-1 1.1,-1.8 1.2,-2.8 -2,0.6 -1.8,4 -4.2,4.1 -1.1,0 -2.7,-0.5 -2.6,-1.9 0.2,-1.3 1.8,-2 1.5,-3.3 -0.4,-1.9 4.3,-0.8 4.9,-2.2 1.1,-2.6 4.6,-0.5 6,1 0.8,0.9 0.2,2 0.6,3.1 0.2,0.6 0.2,2.7 -1.1,1.5 -0.6,-0.5 -1.7,-2.8 -2.6,-2.7 -1.3,0.1 -2,3.2 -2.2,4.1 -0.3,1.4 -0.4,2.9 -0.7,4.3 -0.2,1 1.9,-1.3 2.1,-1.5 0.7,-1.1 0.8,-2.5 2.5,-2.8 1.3,-0.3 1.8,2 2.3,2.8 1,-1.2 1.6,-3.5 2.9,-4.3 0.1,2.7 -2.4,5.4 -2.4,7.6 z"
       id="path41" />
    <path
       d="m 181,361 c -3.1,-0.5 -3.5,-0.6 -4.3,-3.6 -1.3,0.9 -2,2.2 -2.9,3.4 -1.1,1.4 -2.6,2.4 -4,3.4 -1.4,1 -2.7,-0.5 -4.2,-0.1 -1.8,0.5 -2.9,0 -4.6,0.3 0.4,-1 1.5,-2.3 1.5,-3.3 0,-1.1 -1.1,-1.5 -0.8,-2.6 0.4,-1.6 2.1,-3.9 3.9,-2.4 1.9,1.6 -2.3,3.4 0.4,4.5 1,0.4 2.9,0 3.6,0.9 1.1,1.3 1.8,0.5 2.6,-0.5 1,-1.2 1.9,-2.4 2.9,-3.6 1.1,-1.2 1.2,-1.6 -0.3,-2.2 -2.7,-1 1.2,-4.6 3.1,-3.9 1.1,0.4 1.1,2 1.5,2.9 0.6,1.2 2.1,1 3,1.7 2.5,1.8 2,5.3 -1.4,5.1 z"
       id="path42" />
    <path
       d="m 183.6,382.1 c 1.9,-0.4 7.1,-2.1 6,1.5 -0.3,1.1 -0.7,2.2 -1.6,3 -1.3,1.1 -1,0.6 -1,2.2 0.1,1.1 -1.1,2.2 -2,2.6 -1.3,0.5 -2.3,-0.7 -3.6,-0.4 -2.3,0.5 -5.8,2.1 -7.9,0.7 1.3,-1.2 3.6,-1.4 5.3,-1.5 2.1,-0.1 3.6,-1.8 5.4,-2.8 0.1,-0.1 -0.5,-3.3 -0.7,-3.5 -0.5,-0.4 -1.2,-0.1 -1.7,-0.1 -0.9,0.1 -1.4,-0.4 -2.1,-0.9 0.5,-0.3 3.7,-1.8 3.9,-0.8 z"
       id="path43" />
    <path
       d="m 170.8,402.9 c 0.8,0.1 2.5,0.7 3.2,0.2 1.2,-0.7 1.7,-1.7 3.2,-2 2.2,-0.4 5.2,0.6 3.9,3.5 -1.1,2.5 -4,4.4 -6.1,2.1 -0.8,-0.8 -0.9,-1.7 -2.3,-1.7 -1.6,0.1 -2.2,-0.5 -3.3,-1.6 0.5,-0.1 0.9,-0.3 1.4,-0.5 z"
       id="path44" />
    <path
       d="m 161.8,334.2 c -0.5,1.3 -1.8,7.4 -4.4,5.6 -1,-0.7 -0.1,-1.9 -0.6,-2.8 -0.3,-0.5 -1.7,0.7 -2.4,0.3 -2.1,-1.4 0.5,-4.9 2,-5.5 1.5,-0.6 1.4,0.5 2.5,0.8 1.5,0.2 2.5,-0.5 2.9,1.6 z"
       id="path45" />
    <path
       d="m 165.3,393.3 c -1.8,-0.1 -2.4,0.2 -3.9,1.1 -1.1,0.7 -2.6,0.6 -3.3,-0.7 -0.9,-1.6 -1.1,-1.9 -2.8,-2.8 -1.6,-0.9 -3.3,-1.6 -4.1,-3.2 3.5,0.5 6.6,2.6 10,3.3 1.9,0.4 3.8,0.5 5.7,0.5 1.4,0 2.9,-0.3 4.1,0.4 -0.5,0.7 -5.5,2 -5.7,1.4 z"
       id="path46" />
    <path
       d="m 163.7,406.8 c -3.8,0.1 -0.9,-2.5 -1.6,-4.1 -0.4,-1 -1.8,-1 -1.3,-2.4 0.4,-1.1 1.5,-1.8 2.7,-1.9 1,-0.1 2.8,0.3 2.7,1.7 -0.1,1.1 -1.1,1.8 0.5,2.1 3.9,0.8 -1.1,4.4 -3,4.6 z"
       id="path47" />
    <path
       d="m 159.1,343.7 c 0,1.7 -0.9,3.7 -2.9,3.2 -2.2,-0.6 -2.4,1.6 -4.2,2.2 0.2,-1.2 1,-2 1.3,-3.2 0.5,-1.6 0.1,-3.2 1,-4.7 2.1,-3.2 4.1,0.9 4.8,2.5 z"
       id="path48" />
    <path
       d="m 167.8,415.5 c -2.7,-0.2 -5.4,-0.9 -7.7,-2.5 -0.9,-0.6 -7.3,-4.1 -5.7,-5.6 0.9,-0.9 6.5,3.5 7.5,4.1 1.4,0.9 2.9,1.8 4.5,2.2 1.7,0.4 3.3,-0.1 4.9,0.2 -0.9,1.2 -2.1,1.3 -3.5,1.6 z"
       id="path49" />
    <path
       d="m 171.2,390.8 c -2.1,-0.7 -4.8,0 -6.7,-0.9 -2.3,-1.1 0.1,-3.1 1.7,-3.2 1,-0.1 2,0.4 3.1,0.3 1.5,-0.1 2.3,0 3.5,0.9 0.7,0.5 1.4,0.6 1.1,1.5 -0.5,1.3 -1.7,1.2 -2.7,1.4 z"
       id="path50" />
    <path
       d="m 134.5,391.6 c -0.3,2.2 -0.3,4.7 -1.3,6.8 -1.1,-2.2 -0.3,-4.7 -0.3,-7.2 0,-1.8 -2.9,-1.1 -3.9,-2.3 -2,-2.2 1.7,-3.4 3.4,-2.6 0.8,0.4 1.4,0.9 1.6,1.7 0.2,0.7 0,3.5 0.5,3.6 z"
       id="path51" />
    <path
       d="m 163.3,396.7 c -2.9,1.7 -5.3,0.8 -8.2,-0.4 -2.7,-1.1 -6.6,-1.9 -7.8,-4.7 2.7,0.1 5,2 7.5,2.9 2.6,0.9 5.9,1.9 8.5,2.2 z"
       id="path52" />
    <path
       d="m 151.1,401.4 c -3.2,-3 -6,-6 -7.2,-10.2 2.3,2.5 4.1,5.5 6.8,7.7 2.6,2.1 5.7,2.3 8.5,3.7 -2.8,0.8 -5.4,-0.4 -8.1,-1.2 z"
       id="path53" />
    <path
       d="m 119.1,375.8 c -1,-0.2 -5,-0.2 -4.9,-1.7 0,-0.9 0.5,-2.8 1.6,-2.6 1.4,0.2 3.4,0.8 3.9,2.2 0.3,0.9 4.7,-0.4 5.5,-0.2 -1,1.9 -5.9,1.5 -6.1,2.3 z"
       id="path54" />
    <path
       d="m 149.7,382.5 c 0.1,3.4 -4.1,6.2 -7.3,5.4 1.3,-2 4.6,-1.7 5.6,-3.8 1.1,-2.3 -0.6,-5.1 0.6,-7.4 1,1.7 0.9,3.9 1.1,5.8 z"
       id="path55" />
    <path
       d="m 138,345.9 c -0.4,3.1 -0.8,6.1 -1.3,9.2 -0.3,2 -0.4,5.4 -2.4,6.5 -0.8,-2.1 0.8,-5.8 1.2,-8 0.5,-2.4 0.6,-6.6 2.3,-8.3 0.1,0.1 0.2,0.4 0.2,0.6 z"
       id="path56" />
    <path
       d="m 202.9,376.1 c 0,0.9 -0.5,4 -2,3.4 -0.9,-0.3 -3.4,-1.6 -2.9,-2.8 0.7,-2 4.9,-4.5 4.9,-0.6 z"
       id="path57" />
    <path
       d="m 131.1,392.7 c -0.3,1.1 -0.3,2.7 -1.5,3.2 -1.1,0.5 -2.6,-0.1 -2.7,-1.4 -0.1,-1.2 0.3,-2.4 1.4,-3 1.7,-1 1.9,-0.1 2.8,1.2 z"
       id="path58" />
    <path
       d="m 112,368.5 c -1,-0.1 -8.1,-3.4 -6.3,-4.4 1.2,-0.6 3.6,1 4.6,1.5 1.5,0.7 3.7,1.6 1.7,2.9 z"
       id="path59" />
    <path
       d="m 124.3,333.5 c 0,2.7 -4.2,2.9 -4.4,0.5 -0.2,-2.6 4.3,-3.9 4.4,-0.5 z"
       id="path60" />
    <path
       d="m 132.6,375.7 c 0.1,2 -3.2,4.4 -4.1,1.7 -0.9,-2.6 4.1,-5 4.1,-1.7 z"
       id="path61" />
    <path
       d="m 129.3,368.7 c 2.9,0 2.8,4.7 0.3,4.6 -2.1,-0.1 -3.3,-4.6 -0.3,-4.6 z"
       id="path62" />
    <path
       d="m 119.9,342 c 0,3.3 -3.7,1.9 -3.7,-0.7 0,-3.5 3.8,-2.3 3.7,0.7 z"
       id="path63" />
    <path
       d="m 146.2,344.3 c -0.8,2.4 -1.6,4.8 -2.5,7.2 -0.4,1.2 -1,2.1 -1.7,3.2 -0.2,0.2 -0.9,0.2 -0.7,-0.2 1.7,-3.7 2.3,-7.2 4.9,-10.2 z"
       id="path64" />
    <path
       d="m 115.4,340.5 c -0.2,3.1 -3,2.8 -2.7,-0.3 0,-0.2 0.7,-2.7 1.2,-2.5 1.3,0.5 1.5,1.4 1.5,2.8 z"
       id="path65" />
    <path
       d="m 172.8,383.9 c 1.6,-0.2 3.7,-0.1 2.5,2.5 -0.2,0.5 -1.2,1.6 -1.9,0.9 -1.2,-1.2 -1.3,-2 -0.6,-3.4 z"
       id="path66" />
    <path
       d="m 135.9,382.6 c -0.2,1.7 -2.7,2.8 -3.2,0.7 -0.7,-2.8 3.4,-3.6 3.2,-0.7 z"
       id="path67" />
    <path
       d="m 163.3,396.8 c 0.2,-0.3 0.8,-2 1.3,-1.9 1.1,0.1 2.2,0.6 3,1.3 1.2,1 -0.8,1.6 -1.5,1.7 -1,0.1 -2.2,-0.5 -2.8,-1.1 z"
       id="path68" />
  </g>
</svg>
