<?xml version="1.0" encoding="UTF-8" standalone="no"?>
<svg
   enable-background="new 0 0 500 500"
   version="1.1"
   viewBox="0 0 235.26874 203.58401"
   id="svg68"
   sodipodi:docname="rose-1.svg"
   inkscape:version="1.3 (0e150ed6c4, 2023-07-21)"
   width="235.26874"
   height="203.58401"
   xmlns:inkscape="http://www.inkscape.org/namespaces/inkscape"
   xmlns:sodipodi="http://sodipodi.sourceforge.net/DTD/sodipodi-0.dtd"
   xmlns="http://www.w3.org/2000/svg"
   xmlns:svg="http://www.w3.org/2000/svg">
  <defs
     id="defs68">
    <filter
       style="color-interpolation-filters:sRGB;"
       inkscape:label="Colorize"
       id="filter2"
       x="0"
       y="0"
       width="1"
       height="1">
      <feComposite
         in2="SourceGraphic"
         operator="arithmetic"
         k1="0"
         k2="1"
         result="composite1"
         id="feComposite1" />
      <feColorMatrix
         in="composite1"
         values="1"
         type="saturate"
         result="colormatrix1"
         id="feColorMatrix1" />
      <feFlood
         flood-opacity="1"
         flood-color="rgb(158,0,67)"
         result="flood1"
         id="feFlood1" />
      <feBlend
         in="flood1"
         in2="colormatrix1"
         mode="multiply"
         result="blend1"
         id="feBlend1" />
      <feBlend
         in2="blend1"
         mode="screen"
         result="blend2"
         id="feBlend2" />
      <feColorMatrix
         in="blend2"
         values="1"
         type="saturate"
         result="colormatrix2"
         id="feColorMatrix2" />
      <feComposite
         in="colormatrix2"
         in2="SourceGraphic"
         operator="in"
         k2="1"
         result="fbSourceGraphic"
         id="feComposite2" />
      <feColorMatrix
         result="fbSourceGraphicAlpha"
         in="fbSourceGraphic"
         values="0 0 0 -1 0 0 0 0 -1 0 0 0 0 -1 0 0 0 0 1 0"
         id="feColorMatrix3" />
      <feComposite
         id="feComposite3"
         in2="fbSourceGraphic"
         operator="arithmetic"
         k1="0"
         k2="1"
         result="composite1"
         in="fbSourceGraphic" />
      <feColorMatrix
         id="feColorMatrix4"
         in="composite1"
         values="1"
         type="saturate"
         result="colormatrix1" />
      <feFlood
         id="feFlood4"
         flood-opacity="1"
         flood-color="rgb(158,0,67)"
         result="flood1" />
      <feBlend
         id="feBlend4"
         in="flood1"
         in2="colormatrix1"
         mode="multiply"
         result="blend1" />
      <feBlend
         id="feBlend5"
         in2="blend1"
         mode="screen"
         result="blend2" />
      <feColorMatrix
         id="feColorMatrix5"
         in="blend2"
         values="1"
         type="saturate"
         result="colormatrix2" />
      <feComposite
         id="feComposite5"
         in="colormatrix2"
         in2="fbSourceGraphic"
         operator="in"
         k2="1"
         result="composite2" />
    </filter>
  </defs>
  <sodipodi:namedview
     id="namedview68"
     pagecolor="#ffffff"
     bordercolor="#000000"
     borderopacity="0.25"
     inkscape:showpageshadow="2"
     inkscape:pageopacity="0.0"
     inkscape:pagecheckerboard="0"
     inkscape:deskcolor="#d1d1d1"
     inkscape:zoom="1.642"
     inkscape:cx="124.54324"
     inkscape:cy="92.874543"
     inkscape:window-width="1920"
     inkscape:window-height="1017"
     inkscape:window-x="1912"
     inkscape:window-y="-8"
     inkscape:window-maximized="1"
     inkscape:current-layer="svg68" />
  <g
     fill="#231f20"
     id="g35"
     transform="translate(-243.44816,-19.068842)"
     style="filter:url(#filter2);fill:#ff5555">
    <path
       d="m 360.1,211.7 c 1,0.9 1.8,2.5 2.9,3.1 1.1,0.6 4.3,2.4 5.6,1.7 1.6,-0.9 3.4,-1.3 4.9,-2.2 1.6,-0.9 3,-2.6 4.1,-4.1 2.9,-3.8 5.2,-8.3 7.5,-12.5 2.2,-3.9 4.8,-7.8 6.8,-11.8 2,-3.9 2.4,-8.2 2.7,-12.6 0.2,-2.3 0.5,-4.7 0.4,-7 -0.1,-2.2 -1.1,-3.9 -1.8,-5.9 -0.7,-2.2 -2,-4.1 -3.1,-6.1 -1.4,-2.5 -1.7,-1.9 -4.2,-2.3 -2.8,-0.4 -10.1,-1.8 -10.9,-4.9 4,0.8 7.1,4.2 11.3,4.4 1.8,0.1 3.6,-0.2 5.4,-0.6 0.8,-0.2 1.7,0.2 2.5,0.1 1.2,-0.1 2.2,-0.7 3.3,-1.2 3.5,-1.6 7,-1.9 10.7,-2.8 3.7,-0.9 4.8,-4 7.8,-5.8 1.4,-0.8 3,-0.1 4.3,-1.2 1.4,-1.3 2.5,-3.4 3.6,-5 2.5,-3.6 5.3,-7 6.9,-11.1 1.4,-3.7 4,-6.7 6,-10.1 2.1,-3.5 4.1,-7.2 6.2,-10.7 1.8,-3.1 3.2,-7.5 6.2,-9.7 2.9,-2 4.9,-3.6 5,-7.5 0.1,-3.4 -2.2,-7.3 -3.7,-10.2 -0.5,-0.9 -0.6,-3.2 -1.5,-3.7 -1.3,-0.7 -3.8,-0.1 -5.1,0.5 -3.4,1.5 -7.2,3.1 -10,5.7 -3,2.8 -5.9,5.5 -8.3,8.9 -2.4,3.3 -4.5,6.8 -6.8,10.2 -0.9,1.3 -1.1,3.1 -2.1,4.4 -1.1,1.6 -2,3.4 -3.2,5 -2.7,3.7 -7,6.7 -10.4,9.7 -0.8,0.8 -1.6,1.7 -2.5,2.4 -0.8,0.6 -1.7,0.7 -2.4,1.5 -1.4,1.6 -1.8,3.9 -2.8,5.7 -2.2,4 -6.4,6.8 -9.7,10 -1.7,1.6 -3.9,2.3 -6.2,2.4 -1,0 -5.6,0.7 -5.9,-0.6 -0.2,-0.8 6.1,-0.6 6.5,-0.6 2.5,0 4.4,-1.5 6.3,-2.9 1.6,-1.1 -1.3,-2.1 0.8,-2.6 2.4,-0.6 4.3,-2.1 5.8,-4.1 3.2,-4.4 5.6,-10.1 6.1,-15.5 0.4,-3.5 -1.2,-2.3 -3.6,-1.3 -2.7,1.1 -5.7,1.2 -8.5,2.4 -2.6,1.2 -5,1.9 -7.8,2.6 -2.7,0.6 -5.9,1 -8.3,2.5 -2.6,1.6 -4.7,3.4 -7.5,4.5 -2.8,1.2 -5.3,1.1 -8.3,1.2 -1.7,0 -4.2,1.9 -3.4,3.8 1,2.3 2.8,4 4.9,5.2 2.3,1.3 5,2.2 7.6,2.5 1.9,0.3 5.5,-0.8 6.9,0.9 -1.3,0.6 -3.1,0.3 -4.5,0.3 -1,0 -3.5,-0.6 -4.3,0.3 -0.9,1.1 -1.3,2.5 -2.7,3.1 -1.3,0.6 -3,-1.1 -3.6,-0.8 -1.2,0.6 -2.1,-1 -3,-0.5 -0.9,0.5 0.4,3.2 0.9,3.7 2.2,2.7 6.2,2.5 9.2,2.2 -2.4,3.6 -5.8,0.2 -8.9,0.3 0.6,1.4 2.6,1.9 3.7,3 -3.9,1.4 -4.6,-3.2 -6.9,-5.2 -0.8,1.8 0,2 0.6,3.7 0.4,1 0,3.2 -0.4,4.2 -0.5,1.3 -2.5,1.9 -2.4,0.1 0,-1.5 0.8,-1.5 1.9,-2.1 1,-0.5 -0.6,-3.1 -1,-3.7 -0.1,-0.2 -3.5,1.7 -3.9,1.8 -1.6,0.5 -3.4,0.4 -5,0.2 -1.9,-0.3 -0.6,1 -1.4,2 -0.8,0.9 -2.4,-0.9 -2.7,0.7 -0.2,1.2 2.8,0.7 3.5,0.7 1.2,0 2.8,0.3 3.1,-1.3 0.1,-0.9 2.9,-0.3 3.4,0 1.8,1 -0.4,2.4 0.1,3.4 0.4,0.9 2.2,2.8 -0.4,2.7 -1.3,0 -1.3,-1.8 -2.8,-1.1 -1.6,0.7 -3.2,1 -4.6,-0.3 1.9,-0.7 7.5,-0.4 7.5,-3.7 -0.8,0.4 -0.9,1.4 -1.9,1.5 -1,0.1 -2.1,-0.3 -3.1,-0.3 -2.5,0.1 -5.3,-0.1 -7.8,0.4 1.6,2.8 5.9,4.7 9,5 1.7,0.2 3.5,0.1 5.1,-0.4 1.8,-0.7 3.2,-2.1 5,-2.8 -0.3,1.9 -3,3.5 -4.7,4.2 -2.2,0.9 -5,0.8 -7.3,0.2 -2.2,-0.6 -4.3,-1.8 -6,-3.3 -1.7,-1.5 -4.2,-4 -4.8,-6.2 1.2,-0.1 2.1,0.9 3.1,1.5 1.4,1 1.4,-0.9 1.8,-1.9 0.5,-1.1 1.6,0.3 2.1,-0.4 0.9,-1.4 -1.2,-1.4 -2.1,-1.6 -1.2,-0.2 -2.3,-1 -3.3,0.1 -1.5,1.5 -1.2,-2.6 -1.2,-3 0.2,-1.3 0.9,-2.6 2.3,-1.2 0.9,0.9 -0.4,2.6 0.9,2.8 3.5,0.6 7.2,0.6 10.8,0.9 1.8,0.1 7.3,-3 7.4,-4.9 0.1,-2.6 -4,-3.3 -5.8,-4.5 -1.7,-1.2 -5.7,-4.3 -5.8,-6.6 1.9,0.6 3.6,3.4 5.2,4.7 1.3,1 4.1,3.4 5.9,3.1 -0.2,-1.2 -2.3,-2.2 -3.2,-3 -1.3,-1.1 -2.7,-2.1 -4,-3.2 -1.3,-1.1 -2.7,-2.1 -4,-3.2 -1.2,-0.9 -2,-0.1 -3.2,0.1 -1.5,0.3 -1.8,-1.8 -0.7,-2.5 1.3,-0.8 0.2,-1.7 -0.4,-2.6 -0.8,-1.2 -1.5,-2.6 -2.3,-3.8 -0.7,-0.9 -1.7,1 -2.9,0.4 -1,-0.6 -0.8,-1.9 0.2,-2.2 1.4,-0.4 -0.1,-1.8 -0.5,-2.4 -0.5,-0.9 -0.8,-2 -2,-2.1 -1.6,0 -1.4,-2.3 0.2,-2 1.9,0.4 2.5,3.8 3.8,5.3 1.8,2.1 4.6,4 5.7,6.5 -0.5,-0.1 -1,-0.2 -1.6,-0.4 1.6,2.8 4.9,5.5 7.4,7.5 2,1.7 5.3,5.1 7.9,5.6 -0.6,-1.5 -2.2,-3.1 -2.1,-4.8 1.4,0.9 2.2,2.7 3.3,4 1.3,1.4 3,3 4.7,3.7 1.6,0.6 3.1,-0.3 3.6,-1.9 0.2,-0.7 -4.2,-2.3 -4.9,-2.7 -1.6,-1 -7,-5.4 -5.3,-7.4 1.3,-1.4 1.6,-3.1 1.1,-4.9 -0.5,-1.7 0.9,-3.5 2.7,-3.2 -0.3,0.8 -1.2,1.1 -1.7,1.8 -0.5,0.8 0.9,1 0.6,1.6 -0.7,1.8 0.3,1.1 1.4,1 1.7,-0.1 5.7,0.2 7,-1 0.5,-0.5 -0.4,-1.1 0.4,-1.6 0.7,-0.4 1.2,-0.5 1.9,-1.1 -0.9,-0.7 -1.3,-1.1 -1.9,-2.1 -0.5,-0.9 -3.2,0.1 -4,0.3 2.1,-3.2 4.4,-1.9 6.5,0.5 0.9,1.1 0.3,2.7 2.1,1.5 1.5,-1 2.9,-2 4.5,-2.9 1.7,-1 1.1,-6.4 0.3,-8 -0.3,-0.6 -2.3,-1.5 -1.3,-2.6 1.3,-1.6 0,-3.2 -0.1,-4.9 1.1,1.1 1.5,3.4 2,4.8 0.2,0.5 0.1,1 0.6,1.3 0.3,0.2 0.9,0 0.9,-0.5 -0.5,-3.9 -3,-7.3 -4.2,-11 3.2,3.6 7.7,11.4 5.2,16.3 -0.5,-0.6 -0.3,-1.9 -0.9,-2.3 -1,-0.7 -0.6,2.2 -0.6,2.4 0,0.7 -0.2,2.8 0.4,3.3 0.7,0.7 2.1,-0.3 2.4,-0.9 1,-1.9 0.4,-6.2 0.1,-8.3 -0.2,-1.5 -0.8,-3 -1.3,-4.4 -0.4,-1.1 -1.4,-2.2 -1.6,-3.4 2.8,1.9 3.9,6.4 4,9.5 0.1,2.4 0.1,1.3 1.7,2.3 1.6,1.1 -0.3,2 -1.4,1.2 -1,2.8 -1.5,3.4 1.7,3 2.9,-0.4 4.3,-0.8 6.4,-2.9 1.8,-1.8 4.1,-3 6.3,-4.4 2.6,-1.7 5.1,-3.5 7.5,-5.4 1.7,-1.4 2.7,-3.6 4.3,-5.2 2,-2 3.8,-4.1 5.6,-6.3 1.6,-1.9 4.6,-3.3 6.7,-4.8 2.4,-1.6 4.7,-3.2 6.9,-5 8.6,-7 11.4,-19.4 8.9,-29.9 -1.3,-5.4 -4.5,-10 -7.6,-14.4 -1.3,-1.9 -2.7,-2.8 -5,-3.3 -2.2,-0.4 -4.9,0.3 -6.7,-1 2.5,-1.7 7.2,-0.7 9.8,0.6 2.1,1.1 2.3,1.5 4.6,0.7 2.1,-0.8 4.4,-1.3 6.6,-0.9 3.4,0.5 6.6,2.8 8.6,5.5 1,1.3 1.7,2.9 2.5,4.4 0.4,0.7 0.9,4.1 1.8,3.5 3.3,-2.3 6.6,1.8 8,4.4 0.8,1.5 1,3.2 1.6,4.8 0.7,1.8 2.2,2.8 2.7,4.6 0.8,3 4.2,4.6 5.7,7.3 2.1,3.7 3.5,8.2 2.6,12.4 -0.9,3.9 -1.8,8 -3,11.8 -1.2,3.7 -4.2,5.2 -6.2,8.3 -2,3.1 -3.3,6.2 -5.8,9 -1,1 -2.4,2.8 -3.9,3 -2.1,0.3 1.1,-2.7 1.4,-3 2.7,-2 4.5,-4.9 6,-7.9 0.8,-1.6 1.6,-3.1 3,-4.4 0.5,-0.4 1.4,-0.9 1.5,-1.6 0.1,-0.9 -0.3,-1.7 0,-2.8 0.7,-3.8 2.1,-7.3 2.9,-11 0.9,-4.1 0.2,-8.6 -0.2,-12.7 -0.3,-3.3 -3.4,-3.7 -4.5,-6.5 -0.4,-1 -0.3,-2.3 -1.2,-3 -1.1,-0.8 -2,-1.3 -2.5,-2.6 -1,-2.6 -1.3,-5 -3.2,-7.2 -2.4,-2.8 -3.8,-2.3 -6.3,-0.1 -1.4,-2.3 -1.7,-5.2 -3,-7.7 -1.1,-2.1 -2.6,-3.9 -4.6,-5.2 -2.1,-1.4 -4.5,-2.2 -7,-2.2 -1.2,0 -6.6,0.4 -5,2.5 3.1,4.2 6.3,9 7.8,14.1 1.5,5.2 1.1,11 -0.1,16.2 -1.2,5.3 -3.6,10.5 -7.8,14.2 -4.5,3.9 -10.3,6.3 -14.6,10.4 -2,1.9 -3.7,4.1 -5.6,6.1 -1.8,1.9 -3,4.4 -5,6 -4.6,3.8 -9.8,6.4 -14.5,9.9 2.1,-0.6 4,-1.5 5.9,-2.5 1.8,-1 3,-2.5 5.2,-2.1 1.3,0.2 4,1.2 3.8,2.9 -0.4,2.5 -1,5.1 -1.1,7.7 2.2,-1.1 3.9,-3.2 5.7,-4.9 2.3,-2.1 4.5,-4.1 6.6,-6.4 1.6,-1.9 4.5,-4.3 4.9,-6.9 0.5,-3.1 2.4,-5.3 4.1,-7.7 3.4,-4.9 5.8,-9.5 10.7,-13.1 2,-1.5 3.2,-3.5 5.5,-4.7 2.4,-1.3 5,-2.3 7.4,-3.5 1.5,-0.8 4.8,-1.1 5.8,0.6 0.5,0.8 0.4,1.8 0.9,2.7 0.7,1.3 1.6,2.4 2.1,3.8 0.4,1.1 0.6,2.2 1.1,3.3 0.7,1.3 1.7,2.4 2.3,3.8 1.3,3.2 -0.4,6.2 -1.9,9 -2.9,5.4 -5.2,11.2 -8.1,16.6 -3,5.7 -7.3,10.4 -10.4,16 4.2,0.2 8.2,1.1 12.1,2.6 3.7,1.5 6.7,4.2 10.1,6.3 3.3,2.1 3.5,7.5 2.4,10.8 -0.9,2.7 -2.8,7.6 -6.4,6.6 0.7,-1.3 2,-1.9 3,-3.1 0.9,-1.1 1.6,-2.5 1.9,-3.9 0.7,-3 0.8,-7 -1.8,-9.1 -5.9,-4.9 -14.1,-9.4 -22,-8.6 -1.4,0.2 -2.3,2.7 -3.1,3.7 -1.1,1.4 -2.3,2.6 -3.5,3.9 -2.2,2.3 -5.8,6.6 -9.4,5.5 -1.6,-0.5 -1.3,1.2 -2,2.1 -0.9,1.1 -2.4,1.6 -3.7,2.2 -4,1.9 -8.2,2.1 -12.3,3.4 -1.9,0.6 -3.7,1.4 -5.6,2.1 -0.9,0.3 -1.8,0.6 -2.7,0.3 -0.7,-0.2 -1.2,-0.7 -1.9,-0.2 -0.5,0.4 4.1,8 4.5,9.1 2.4,7.1 1.6,17 -1.6,23.7 -0.9,1.9 -0.3,2.6 -0.2,4.6 0,0.9 0.3,1.5 0.6,2.3 0.7,-0.3 1.2,-0.6 1.9,-0.9 1.2,-0.6 1.7,0.2 1.9,1.4 0.5,2.7 0.9,1.3 2.8,2 1.2,0.5 1.3,2.2 1.8,3.2 0.6,1.3 1.7,2.3 2.9,3.1 1.2,0.8 2.6,1.3 4,1.8 1.5,0.6 3,1.9 4.7,1.8 2.6,-0.2 2.7,-0.1 4.6,1.8 1.7,1.7 4,2.2 6.3,1.6 0.9,-0.3 1.7,-0.7 2.6,-0.6 1.3,0.1 1.3,1.4 2.2,2 1.6,1 6,-2.2 7.4,-3 9,-5.2 22.8,-0.3 28.8,-10.7 0.9,-1.7 1.3,-3.8 2.7,-5.2 0.7,-0.7 1.6,-0.8 2.3,-1.3 0.9,-0.6 0.8,-2.4 1,-3.3 0.6,-3 1.7,-5.2 3.2,-7.8 1.4,-2.4 1.5,-5.2 1.2,-7.9 -0.5,-5.6 -3.1,-9.8 -5.3,-14.8 -0.9,-1.9 -2.1,-3.6 -4.1,-4.5 -2.1,-1 -4.8,-0.7 -6.4,-2.6 2,-1.4 7.3,0.8 9.1,2.4 2.6,2.3 3.6,6 5.2,9 0.8,1.5 1.8,3 2.2,4.7 0.4,2 0.4,4.1 0.6,6.1 0.2,1.9 0.6,4 0,5.9 -0.6,1.7 -1.9,3.2 -2.6,4.8 -0.6,1.4 -1.1,2.8 -1.5,4.2 -0.3,1.2 -0.1,3.7 -1,4.6 -0.8,0.9 -2.2,0.6 -3.1,1.6 -1,1.1 -1.1,2.8 -1.9,4 -1.7,2.7 -4.2,5.2 -7,6.6 -3.2,1.7 -6.8,1.4 -10.3,2.3 -3.4,0.9 -6.1,3.1 -9.7,3.7 -1.9,0.3 -3.9,0.2 -5.8,1 -1.4,0.6 -2.9,1.4 -4.5,1.5 -1.6,0.1 -2,-1.9 -3.2,-1.8 -1.7,0.2 -3.4,1.1 -5.2,1.1 -3.1,-0.1 -4.5,-3.8 -7.6,-3.9 -1.5,-0.1 -2.6,-0.4 -3.8,-1.5 -1,-0.9 -3.2,-1.3 -4.5,-2 -1.4,-0.8 -3,-1.6 -4,-2.8 -0.8,-1 -0.9,-3.3 -2.1,-3.8 -0.8,-0.3 -2.2,0.2 -2.8,-0.7 -0.3,-0.5 -0.4,-2.7 -1.3,-2.4 -1,0.2 -2,1.4 -3.1,0.7 -1,-0.6 -0.9,-2.8 -1.1,-3.8 -2.7,4.2 -5,8.5 -7.5,12.8 -2.1,3.7 -4.1,8 -7,11.1 -1.2,1.3 -2.7,2.4 -4.4,3.1 -1.8,0.7 -4.2,2.3 -6.1,1.9 -3.9,-0.3 -7.6,-2.3 -7.2,-6 z m 96,-123.4 c 0,-0.8 -0.3,-1.6 -0.6,-2.4 -0.3,2.1 -0.7,4.4 -2,6.1 -1.4,1.8 -3.9,2 -5.4,3.8 -1.6,1.9 -2,4.5 -3.4,6.6 -1.7,2.4 -2.8,5 -4.2,7.5 -3.1,5.4 -7.1,10.5 -9.5,16.2 -1.1,2.6 -2.7,4.5 -4.3,6.7 -0.9,1.3 -1.8,2.7 -2.7,4.1 -0.8,1.2 -2,2.5 -2.4,3.8 1.6,-0.2 3.7,-2.3 4.8,-3.4 1.9,-1.8 3.4,-3.9 5.1,-6 3.3,-4.3 6.5,-8.8 9.6,-13.3 3.1,-4.5 5.7,-9.5 8.2,-14.4 1.5,-3 3.1,-6 4.5,-9.1 0.7,-1.5 1.4,-3.1 2,-4.7 0.2,-0.4 0.3,-0.9 0.3,-1.5 z m 9.6,-12.5 c -0.1,-1.3 -0.4,-2.5 -0.5,-3.9 -0.1,-1 -0.1,-2.9 -1,-3.7 -0.5,1.9 0.2,4.4 0.3,6.3 0.2,2.2 0.3,4.5 -0.4,6.7 -1,3 -4.9,8.9 -3,12 1.9,-1.4 2.3,-5.4 2.8,-7.5 0.6,-2.4 1.1,-4.8 1.6,-7.2 0.3,-1 0.3,-1.8 0.2,-2.7 z"
       id="path1"
       style="fill:#ff5555" />
    <path
       d="m 259.2,176.5 c -2.9,-1.2 -4.2,-5.1 -4.9,-8.1 -0.4,-1.8 -0.3,-3.6 -0.6,-5.4 -0.4,-2.3 -1.3,-4.1 -2.4,-6.1 -0.7,-1.5 -1.3,-3 -2.2,-4.5 -0.8,-1.4 -2.1,-2.6 -2.7,-4.2 -1.1,-3.4 0.5,-8 2,-11.1 0.8,-1.6 1.7,-3 2.6,-4.5 0.8,-1.4 -0.6,-1.6 -1.4,-2.4 -1.4,-1.2 -2.3,-3.2 -3.3,-4.7 -1.3,-2 -2.6,-4 -2.8,-6.5 -0.3,-3.8 0.8,-7.7 0.8,-11.5 0,-3.6 0,-6.7 1.9,-9.9 1.6,-2.7 4.3,-4.1 6.2,-6.6 1,-1.3 0.7,-2.9 0.8,-4.4 0.2,-2.3 0.6,-4.6 1.4,-6.8 2.6,-7.7 8.4,-12.9 16.8,-13.4 8.9,-0.5 17,2.5 25.3,5.1 3.7,1.2 7,4 10.2,6 3.4,2.2 6.2,4.8 9.4,7.2 2.2,1.7 4.2,3.6 6.4,5.3 2,1.6 3.5,3.6 5.5,5.2 2.2,1.8 4.4,3.4 6.4,5.4 2,1.9 4.8,4.6 5.8,7.2 -2.9,-0.8 -5.6,-5 -7.6,-7.1 -2.7,-2.8 -5.8,-5.1 -8.6,-7.9 -2.4,-2.5 -5.2,-4.4 -7.9,-6.5 -2.8,-2.3 -5.5,-5 -8.6,-6.8 -3.2,-2 -6.4,-4.4 -9.8,-6.1 -3.5,-1.7 -7.3,-2.6 -10.9,-3.7 -3.5,-1.1 -7.7,-1.9 -11.4,-2 -3.6,-0.2 -7.6,0.1 -10.9,1.7 -6.3,3 -9.3,10.6 -9.6,17.2 -0.1,1.6 0.2,3.2 -0.6,4.7 -0.7,1.3 -2.1,2.1 -3.2,3.1 -2.6,2.2 -4.5,5 -5.1,8.4 -0.7,3.8 0,7.8 -0.5,11.6 -0.2,1.9 -0.7,3.6 -0.2,5.5 0.5,2 1.8,4 3,5.7 2,2.8 4.6,4.3 6.8,6.7 2.6,2.8 5.6,5.8 9.1,7.4 2.1,1 4.3,1.4 6.4,2.1 1,0.3 1.9,0.9 2.7,1.7 1.3,0.3 2.5,0.6 3.8,1 2.5,0.6 5.1,1.1 7.7,1.2 1.5,0 5.5,0.7 6.3,-0.9 1,-2 0,-4.3 1.4,-6.3 1.2,-1.7 2.5,-3.4 4.1,-4.8 4,-3.3 8.4,-3.5 13,-1.1 2.7,1.4 3.1,3 3.7,5.8 0.5,2.5 1.1,4.7 2.4,7 0.9,1.5 2,1.5 3.7,1.3 0.8,-0.1 3.6,-1.5 4,-1.1 1.5,1.7 -2.7,2.5 -3.8,2.5 -2.7,0 -1.3,1.8 -0.7,3.9 0.2,0.8 0.4,2.7 1.3,3.2 0.7,0.3 1.9,-1 2.4,-1.4 0.9,-0.6 1.9,-1.1 3.1,-1.2 0.1,0 0,-2.3 0,-2.3 1.2,0.9 1.8,2.2 3.3,2.9 1.6,0.8 3.9,1.2 4.9,2.7 -1.9,0.9 -3.6,-0.8 -5.3,-1.5 -2.2,-1 -4.5,0.2 -6.3,1.6 -4.5,3.6 -5.1,-5.6 -6.8,-8.1 -1.4,-2 -2.5,-4.3 -3,-6.8 -0.3,-1.5 0.1,-4.6 -1,-5.7 -0.5,-0.5 -1.5,-0.4 -2.2,-1 -0.8,-0.7 -1.7,-1.2 -2.7,-1.6 -1.9,-0.7 -4,-0.6 -5.9,0 -8.9,3 -11.4,14.7 -4.5,20.8 1.8,1.6 3.2,2.6 5.6,2.8 2.3,0.2 3.9,1.9 6.1,2.4 1,0.3 2.1,0.2 3.2,0 1.3,-0.2 2.3,0.3 3.5,0.6 2.3,0.6 3.2,-0.8 4.9,-1.9 1.2,2.1 -2,3.4 -3.8,3.3 -1.1,-0.1 -2,-0.8 -3.1,-0.9 -1.4,-0.1 -2.7,0.7 -4.2,0.5 -2.6,-0.3 -4.4,-2.4 -7.1,-2.6 -2.8,-0.2 -4.9,-1.7 -6.8,-3.7 -0.8,-0.8 -1.5,-1.6 -2.1,-2.5 -0.7,-1.1 -0.9,-2.5 -1.8,-3.4 -1.6,-1.7 -6,-0.7 -8.2,-0.9 -6,-0.6 -11.9,-2.8 -17.4,-5 -2.5,-1 -4.8,-2.5 -6.8,-4.4 -0.6,-0.6 -5.3,-5.3 -5.8,-4.8 -3,2.8 -6.6,11.5 -4.5,15.5 0.5,0.9 1.5,1.4 2,2.4 0.6,1.3 1.3,2.6 2,3.9 1.3,2.6 2.7,5.2 3.2,8.1 0.5,2.7 0.5,5 1.5,7.6 0.5,1.1 3.1,4.8 2.4,5.9 z"
       id="path2"
       style="fill:#ff5555" />
    <path
       d="m 259.2,176.5 c 0.7,-0.6 3.1,-2.1 2.9,-3.5 -0.1,-1.5 -3.5,-2.7 -2.2,-4.5 1.1,-1.4 3.3,-2.2 4.6,-3.5 1.9,-2 3.1,-2.8 5.9,-3 5.1,-0.5 10.1,-0.9 15.2,-1.5 2.4,-0.2 4.9,-0.5 7.3,-0.8 1.4,-0.2 2.8,-0.2 4.1,-0.5 1.2,-0.3 2.3,-0.8 3.6,-0.7 -1.1,2.8 -7.5,2.6 -10,2.9 -4.5,0.6 -9.1,1.1 -13.6,1.5 -2.9,0.3 -8.2,-0.4 -10.5,1.7 -1.2,1.1 -2,2.4 -3.5,3.3 -1.8,1.1 -2.9,1 -0.9,2.7 3.7,3.1 -0.7,5.8 -2.7,8.2 -2.6,3.1 -3.4,7.4 -4.7,11.2 -0.9,2.5 -3.1,6.9 0.3,8.5 1.7,0.8 3.8,1 5.6,1.5 2.2,0.6 4.3,1.6 6.4,2.5 1.1,0.5 1.2,-0.1 1.4,-1.1 0.4,-1.9 1.2,-3.7 2.1,-5.3 0.6,-1.1 1.3,-3.3 2.8,-3.5 2,-0.4 4.4,0.7 6.4,0.9 3.7,0.5 8.2,1.2 11.9,0.8 3.2,-0.3 -0.4,-5.6 0,-7.6 0.8,-3.9 6,-3.8 9,-3.9 4.4,-0.1 8.9,0.3 13.3,-0.4 1.9,-0.3 3.7,-1.2 5.6,-1.3 1.7,-0.1 3.5,-0.1 5.2,-0.5 4.2,-1 8.4,-2.2 12.4,-3.8 1.3,-0.5 2.7,-1 3.8,-1.9 1,-0.9 1.2,-2.1 1.9,-3.1 1.5,-2.2 3.8,-2 6.1,-2.4 2.3,-0.4 4.2,-1.9 5.5,-3.8 1.6,-2.4 1.5,-5.4 3,-7.7 0.9,1.9 -0.3,5.2 -1.1,7.1 -1.1,2.6 -3.7,4.2 -5.5,6.4 -4.3,5.1 -9,9.5 -14.8,13 -2.6,1.6 -5.9,2.9 -8.1,5 -2.3,2.2 -4.2,4.6 -6.8,6.4 -2.6,1.9 -5.1,3.9 -7.6,5.8 -2.8,2 -6.1,2.9 -9.4,3.7 -6.7,1.8 -13.9,1.7 -20.8,1.3 -3.6,-0.2 -7.1,-0.6 -10.6,-1 -1.5,-0.2 -2.8,-0.6 -4.1,-1.3 -0.5,-0.3 -1.2,0 -1.8,-0.2 -0.7,-0.2 -1.3,-0.6 -1.9,-0.9 -4.2,-2.1 -13.3,-1.7 -13,-8.2 0.1,-3.1 1.7,-6.4 2.6,-9.3 1,-3.6 2.7,-6.2 4.7,-9.2 z m 46.2,7.6 c 0,-0.2 -4.4,-0.1 -4.9,-0.1 -1.9,0 -3.6,-0.2 -5.3,0.9 -1.4,0.9 -3,2.2 -1.4,3.8 1.7,1.7 2.5,2.5 1.2,4.8 -1.8,3.4 -5.9,2.2 -9,2 -2.1,-0.1 -4.2,-0.3 -6.2,-0.7 -1.7,-0.3 -4.4,-1.9 -6.1,-1.2 -1.2,0.5 -2,2.9 -2.6,4 -0.9,1.6 -1.6,3.3 -1.8,5.2 -0.3,2.4 8.8,2.2 10.7,2.4 4.2,0.4 8.5,0.2 12.7,0 2,-0.1 4,0 6,-0.2 2.1,-0.2 4,-0.9 6.1,-1.4 3.5,-0.9 6.7,-1.9 9.6,-4.2 3.1,-2.5 6.6,-4.6 9.5,-7.4 2.8,-2.7 5.2,-4.9 8.5,-6.9 3.6,-2.2 7.2,-4 10.4,-6.7 0.8,-0.7 7.3,-6.1 6.2,-7.2 -0.8,-0.9 -3.5,-0.1 -4.4,0.3 -1.7,0.8 -1.2,2.7 -2.1,4.1 -1.8,2.8 -7.1,3.3 -10,4.2 -4.3,1.3 -8.3,2.5 -12.7,2.8 -2.2,0.2 -4.3,1.2 -6.5,1.5 -2.7,0.2 -5.4,0 -7.9,0 z"
       id="path3"
       style="fill:#ff5555" />
    <path
       d="m 360.2,211.7 c -3.2,2.2 -6.2,5.3 -8.9,8.1 -1.1,1.1 -1.3,2.3 -2.9,2.7 -1.7,0.4 -3.7,-0.1 -5.4,-0.2 -9.1,-1 -18.2,-1.5 -27.4,-1.5 -4.3,0 -8.5,-1 -12.8,-1.3 -3.1,-0.2 -5.2,-4.2 -2.1,-6.2 1.3,-0.8 3,-0.9 4.3,-1.7 1.7,-1 3.3,-2.3 4.9,-3.6 1.9,-1.5 3.6,-3.3 5.3,-5 1.4,-1.4 2.4,-3.3 3.8,-4.6 1.6,2.5 -6.2,8.8 -7.9,10.3 -1.7,1.5 -3.5,2.7 -5.4,4 -0.9,0.6 -1.6,1.2 -2.7,1.3 -0.8,0.1 -1.7,0.2 -2.1,0.9 -2.4,4.2 6.7,3.2 8.7,3.8 2.1,0.6 4.3,0.7 6.4,0.6 2.3,-0.1 5.4,0.5 7.6,-0.3 -3.1,-1.8 -8.3,-1.3 -11.9,-1.6 -1.8,-0.1 -7.9,0.2 -8.2,-2.5 1.3,0 2.4,0.9 3.9,0.9 2.1,0 4.2,0.1 6.2,0.2 3.9,0.2 7.6,1.2 11.4,1.5 1.4,0.1 2.7,0 4.1,0.3 1.6,0.4 2.6,1.5 4.1,2.2 2.8,1.2 7,0.6 10,0.7 2.5,0.1 4.5,1.2 4.2,-2 -0.3,-3.7 -1,-7.3 -1.2,-11 -0.1,-1.3 -0.4,-2.9 0.2,-4.1 0.7,-1.6 2.7,-2.3 4.1,-3.1 3.3,-2 6.5,-4 9.6,-6.2 3.1,-2.2 6.2,-4.5 9.3,-6.8 2.8,-2 5.8,-2.8 8.9,-4.2 3,-1.3 6,-3.1 7.8,-5.9 0.7,-1.1 1.2,-2.3 1.3,-3.7 0.2,-1.9 -0.6,-2.8 -0.8,-4.6 -0.2,-1.5 0.1,-2.6 -0.4,-4.1 -0.5,-1.6 -0.3,-3 -1.6,-4.3 -2.2,-2.2 -3.7,-4.9 -6.4,-6.6 -1.4,-0.9 -2.8,-1.7 -4.1,-2.7 -1.6,-1.1 -1.7,-1 -2.2,0.7 -0.6,2 -2.3,4.8 -4.7,4.7 0.3,-1.7 1.9,-2.2 2.8,-3.7 0.9,-1.5 1.1,-3.2 1.6,-4.9 0.5,-2 0.9,-2.2 -0.8,-3 -1.1,-0.5 -2.5,-1.2 -3.5,-1.5 -0.1,-0.7 0.3,-1.2 0.6,-1.9 0.4,0.8 1.7,-0.2 1.8,1.2 0,1.6 2.7,1.9 3.8,2.1 2.1,0.5 0.1,2.4 -0.5,3.2 -0.4,0.6 3.3,2.1 3.9,2.6 1.3,1 2.6,1.8 3.9,2.8 1.6,1.2 2.1,3 3.4,4.4 1.3,1.5 3,2.3 3,4.6 0,1.6 0.5,3.6 0.7,5.1 0.5,3.9 1.9,8 0.2,11.8 -1.8,4 -5.7,7.4 -8.5,10.7 -3.3,3.8 -6.6,7.6 -10,11.2 -3.1,3.4 -7,6.8 -9.4,10.2 z m -11.7,6.9 c -0.2,0 0,2.2 0.1,2.5 1.4,-1 2.5,-2.9 3.8,-4.2 1.8,-1.7 3.6,-3.5 5.3,-5.2 3.3,-3.3 6.4,-6.7 9.6,-10.1 3.2,-3.4 6.4,-6.7 9.4,-10.2 l 4.8,-5.7 c 1,-1.2 3.3,-3 3.5,-4.6 -1.5,0.6 -2.7,2.1 -4.3,2.8 -2.3,1 -4.7,1.8 -7,2.8 -4.8,2.2 -8.7,6.1 -13,9 -1.9,1.3 -3.9,2.4 -5.8,3.5 -2,1.2 -5,2.4 -6.5,4.2 -1.4,1.7 -0.6,4.4 -0.5,6.4 0.2,3 0.4,5.9 0.6,8.8 z"
       id="path4"
       style="fill:#ff5555" />
    <path
       d="m 353.2,86.3 c 0,1.6 0.3,3.2 -0.6,4.5 -1.3,-2.1 -0.7,-5.8 -0.5,-8.2 0.3,-3.5 0.7,-7 1.3,-10.5 1.1,-6.7 2.8,-13.4 4.1,-20 0.3,-1.4 0.5,-2.8 0.8,-4.3 0.2,-1.2 1.4,-3 1.1,-4.2 -0.3,-1.1 -1.5,-1.8 -2.2,-2.5 l -3.4,-3.4 c -4.6,-4.5 -10.2,-6.9 -16.5,-8.3 -3.1,-0.7 -6.2,-1.1 -9.4,-1.2 -3.1,-0.1 -5,1.6 -7.2,3.5 -2,1.7 -3.4,3.5 -4.6,5.9 -1.5,2.8 -3.8,5.2 -6,7.5 -1,1 -1.7,1.3 -3,1.9 -1.3,0.6 -1.8,2 -3,2.8 -1.2,0.7 -2.6,0.5 -3.8,1.3 -1.1,0.8 -2.1,1.8 -2.9,2.9 -2,2.3 -3.6,5 -4.7,7.8 -0.9,2.1 -1,5.3 -2.7,6.8 -1.2,-2.3 0.7,-5.6 1.7,-7.9 1.3,-3 3.1,-5.9 5.4,-8.3 0.9,-1 2,-1.9 3.1,-2.7 1.2,-0.9 2.8,-1 4.1,-1.9 2.8,-2.2 5.3,-4.1 7.6,-6.8 0.8,-1 2.1,-2 2.7,-3.1 0.7,-1.5 1.4,-3 2.5,-4.3 2,-2.4 5.1,-5.7 8.2,-6.4 3.4,-0.7 7.7,-0.1 11,0.6 3.4,0.8 7.2,1.8 10.4,3.2 3,1.3 5,3.4 7.5,5.4 0.8,0.6 3.2,-0.4 4.2,-0.4 1.7,-0.1 3.9,0 5.4,-0.6 2.7,-1 4.4,-5.1 6.1,-7.1 2.3,-2.7 5.5,-4.2 8.7,-5.6 6.2,-2.7 13,-4.8 19.7,-2.9 2.6,0.7 5.3,1.8 7.3,3.7 1.3,1.2 2.3,2.6 3.2,4.1 0.7,1 2.4,2.9 2.4,4.1 -1.3,-0.1 -2.4,-2.6 -3.1,-3.7 -1,-1.5 -2.3,-2.9 -3.7,-4.1 -3.5,-2.7 -8.4,-3.6 -12.7,-3.5 -4.8,0.2 -9.5,2.1 -13.8,4 -2,0.9 -4.1,1.8 -5.7,3.3 -1.7,1.5 -2.9,3.6 -4.5,5.2 -6.2,6.3 -8.4,15 -10.1,23.4 -2,9.9 -4.1,19.8 -4.4,30 z M 358,36.9 c -0.8,0 -1.6,0.2 -2.4,0.4 1,1.7 2.6,2.9 3.9,4.3 1.2,1.3 2.6,-3.9 2.9,-4.8 0,0 -3.3,0.1 -3.6,0.1 z"
       id="path5"
       style="fill:#ff5555" />
    <path
       d="m 319.8,128.2 c 0.1,-2.3 -0.5,-1.2 -2.1,-1.4 -1.7,-0.1 -1.2,-3.7 0.5,-3 0.9,0.3 1.6,1.8 2.2,2.5 0.8,0.9 1.8,1.7 2.7,2.5 2.1,1.8 4.1,3.4 6.7,4.5 0.3,-1.2 -2.2,-2.8 -2.9,-3.6 -1.4,-1.5 -3.1,-4.1 -5,-4.8 -1.3,-0.5 -1.5,-2.3 -0.9,-3.4 0.4,-0.8 3.5,-1.9 4.2,-1.6 1.3,0.6 2.2,3.5 -0.1,2.9 -1.5,-0.4 -2.5,1.8 -1.4,2.8 1.6,1.5 3.2,3.1 4.9,4.6 1.6,1.4 4.3,2.6 5.5,4.2 -0.8,0.2 -1.4,-0.1 -2.2,-0.2 2.8,2.7 7.7,5.5 11.8,4.9 -1.1,-1.1 -2.9,-1.6 -4.2,-2.5 -1.4,-1 -2.7,-2.1 -4.1,-3.3 -2.8,-2.4 -7.2,-3.9 -9,-7.3 0.8,0.4 3,2.8 3.7,2.6 0.1,-0.3 0,-0.6 -0.3,-0.8 1.6,-0.1 4.6,3 5.7,4.2 1.9,1.9 4.1,3.4 6.4,4.6 2.2,1.1 4.4,1.9 6.7,2.7 0.8,0.3 1.2,1.6 0.1,1.7 -1.1,0.1 -2.5,-0.4 -3.6,-0.5 -2.8,-0.4 -5.7,-0.7 -8.3,-1.8 -2.6,-1.1 -4.6,-3.5 -7.2,-4.4 -2.5,-0.8 -4.3,-2.8 -6.2,-4.5 -1.1,-1 -1.1,0.3 -2.1,0.6 -1.3,0.6 -1.4,-1.5 -1.5,-2.2 z"
       id="path6"
       style="fill:#ff5555" />
    <path
       d="m 336.7,118.5 c 0.3,-1.1 1.2,-2.3 0.5,-3.1 -1.3,-1.5 -3.2,-3.2 -4,-5.1 0.6,0.2 0.8,0.4 1.3,0.6 0.4,0.1 -0.1,-0.9 0.6,-0.7 0.9,0.3 1.9,0.6 2.7,1.1 0.9,0.6 0.5,1.6 0.8,2.5 0.3,0.9 2.3,4.1 3.4,4 2.5,-0.2 4.1,-1.9 6.2,-3 0.7,-0.4 1.4,-0.6 2.2,-0.4 1.4,0.4 1.6,0.6 3.1,0.3 1.6,-0.3 4.6,0.4 3.1,2.8 -0.2,0.4 -1.1,0.9 -1.5,0.5 -0.4,-0.4 0.6,-1.2 0.6,-1.7 0,-2.3 -3.6,0.2 -4.2,0.2 -0.7,0.1 -1.2,-0.6 -1.4,-1.1 -0.3,-0.6 -1.9,0.3 -2.2,0.5 -0.8,0.4 -1.5,0.9 -1.8,1.7 -0.6,1.6 -0.4,1.1 -1.8,0.7 -2.7,-0.6 -1.4,3.7 -0.8,4.7 1.4,2.1 2.9,-0.6 4.5,-0.9 1,-0.2 4.5,1.4 2.7,2.6 -0.5,0.3 -0.8,-1.1 -1,-1.2 -0.5,-0.7 -1.4,-0.6 -2.1,-0.4 -0.8,0.3 -1.4,1 -1.8,1.7 -0.5,1.1 0.4,1 1.1,1.3 0.7,0.3 -0.5,1.3 -0.6,1.6 -0.4,1 0.8,1.6 1.4,2.2 -0.7,0.3 -1.4,0.2 -1.9,-0.1 -0.3,-1.4 -0.3,-3.2 -0.9,-4.5 -0.8,-1.5 -2.4,-2 -3,-3.9 0,-0.1 -1.1,-3.4 -1.7,-2.7 -1.3,1.1 -2.5,0 -3.5,-0.2 z"
       id="path7"
       style="fill:#ff5555" />
    <path
       d="m 343,142.7 c -3.1,0.3 -6.2,-0.4 -9.1,-1.5 -2.7,-1 -7.1,-2.6 -8.9,-4.9 1.7,-0.1 4.1,1.6 5.7,2.3 2.1,1 4.2,1.8 6.4,2.3 3.7,0.7 8.1,-0.4 11.6,1.1 -1.7,0.8 -3.8,0.6 -5.7,0.7 z"
       id="path8"
       style="fill:#ff5555" />
    <path
       d="m 367.3,143.7 c 0.8,2.3 1.4,13.3 -2.9,12.4 0.7,-1.3 -1.5,-1.2 -1.1,-2.9 0.2,-0.7 0.5,-1.6 1.3,-1.6 0.5,0 1.3,1.3 1.6,1.1 0.9,-0.7 0.5,-5.8 -0.3,-6.2 -0.3,-1.6 -0.7,-3.5 1.4,-2.8 z"
       id="path9"
       style="fill:#ff5555" />
    <path
       d="m 360,152.5 c 0.1,3 -2.6,4.9 -5.2,3.3 2.3,-0.9 4.9,-1 4.2,-4.2 -0.4,0.8 -1.4,2.7 -2.5,1.5 -1.4,-1.5 0.6,-1.8 1.4,-2.3 1,-0.6 0.2,-3.1 2,-2 1.5,0.9 2.8,1.2 3.3,3 -1.5,-0.7 -3.5,-2.4 -3.2,0.7 z"
       id="path10"
       style="fill:#ff5555" />
    <path
       d="m 345.7,129.6 c 0.7,0.9 1.7,1.9 2.2,3 -2.6,-0.1 -5.8,-4.8 -7.3,-6.7 -2.4,-2.9 -4.8,-6 -5.9,-9.7 0.7,0.7 1.3,1.5 2,2.2 0.5,1.8 3.1,4.3 4.4,6 1.2,1.7 2.8,4.5 4.6,5.2 z"
       id="path11"
       style="fill:#ff5555" />
    <path
       d="m 367.8,112.7 c -0.1,-1.7 0,-3.5 -0.6,-5.1 -0.3,-0.8 -0.6,-1 -0.2,-1.7 0.4,-0.7 1.3,-0.9 1.7,-0.1 0.4,0.8 0,0.9 -0.1,1.7 -0.1,0.9 0.3,1.7 0.3,2.6 0.1,2.1 0.7,4.8 -0.5,6.5 -0.8,-1.3 -0.6,-2.5 -0.6,-3.9 z"
       id="path12"
       style="fill:#ff5555" />
    <path
       d="m 341.1,97.7 c 0.6,0.7 2.6,2.2 0.7,2.8 -0.5,0.2 -1.1,0 -1.5,0.5 -0.4,0.5 -0.5,1.2 -1.2,1.3 -1.2,0.2 -2.3,-2.4 -1.1,-3 0.6,-0.3 1.2,0.1 1.7,-0.4 0.6,-0.5 0.8,-0.8 1.4,-1.2 z"
       id="path13"
       style="fill:#ff5555" />
    <path
       d="m 326.6,143.5 c 0.8,1.4 2.5,6.3 -1.1,5.3 -0.8,-0.2 -0.6,-2.6 -0.9,-3.4 -0.5,-1.4 0.8,-1.9 2,-1.9 z"
       id="path14"
       style="fill:#ff5555" />
    <path
       d="m 367.3,96.7 c 2,-0.1 1.7,1.3 1.1,2.5 -0.7,1.3 0.1,2.5 -1.2,3.6 -1,0.8 -2,-1.4 -1.5,-2.1 0.7,-1.4 0.7,-2.7 1.6,-4 z"
       id="path15"
       style="fill:#ff5555" />
    <path
       d="m 351.4,92.1 c 1.2,0.1 4.6,2.6 2.1,3.3 -1.9,0.6 -4.2,-1.9 -2.1,-3.3 z"
       id="path16"
       style="fill:#ff5555" />
    <path
       d="m 343.9,110.3 c -1.5,-1.4 -3.3,-5.7 -2.8,-7.8 1.2,1.1 1.1,3 2.2,4.2 0.6,0.7 1.4,0.5 1.6,1.5 0.2,1 -0.5,1.4 -1,2.1 z"
       id="path17"
       style="fill:#ff5555" />
    <path
       d="m 323.2,134.2 c 0,1.7 -2.7,2.6 -3.4,0.9 -0.8,-2 3.4,-3.7 3.4,-0.9 z"
       id="path18"
       style="fill:#ff5555" />
    <path
       d="m 348.4,111.9 c -0.1,2.2 -3,1.6 -3,-0.4 0,-2.4 3,-1.8 3,0.4 z"
       id="path19"
       style="fill:#ff5555" />
    <path
       d="m 331,108.3 c -1.9,-0.1 -2,-3.2 0,-3.1 2.3,0.2 2.5,3.2 0,3.1 z"
       id="path20"
       style="fill:#ff5555" />
    <path
       d="m 334.1,124.8 c -0.1,2 -3,1.2 -3,-0.5 0,-2.8 3,-2 3,0.5 z"
       id="path21"
       style="fill:#ff5555" />
    <path
       d="m 366.5,110.2 c 0,0.6 -0.3,1.2 -0.5,1.8 -1,-2.8 -1.6,-7.1 -1.3,-10.1 0.5,0.8 2.3,8.2 1.8,8.3 z"
       id="path22"
       style="fill:#ff5555" />
    <path
       d="m 363,97.9 c 0,1.4 -2.4,2.4 -3.1,1 -1,-2.1 3.1,-3.7 3.1,-1 z"
       id="path23"
       style="fill:#ff5555" />
    <path
       d="m 367.1,91.4 c 2.1,-0.1 1.9,2.8 -0.1,2.8 -2.2,-0.1 -2.1,-2.8 0.1,-2.8 z"
       id="path24"
       style="fill:#ff5555" />
    <path
       d="m 339.7,111 c 0.2,-0.7 0.3,-1.6 1.3,-1.6 0.9,0 1.6,1.4 1.5,2.2 -0.3,1.5 -3.2,1.1 -2.8,-0.6 z"
       id="path25"
       style="fill:#ff5555" />
    <path
       d="m 379.7,112.2 c 0.2,-1.8 0.4,-3.4 0.1,-5.2 -0.1,-0.5 0.3,-3.6 1.1,-2.1 0.6,1.1 -0.2,2.4 -0.2,3.6 0,1.4 0,2.9 -0.8,4.1 -0.1,-0.2 -0.1,-0.3 -0.2,-0.4 z"
       id="path26"
       style="fill:#ff5555" />
    <path
       d="m 324.4,150.4 c -0.7,0.7 -1.1,1.2 -2.1,0.6 -0.7,-0.4 -1.3,-1 -1,-1.8 0.8,-2 3,-0.3 3.1,1.2 z"
       id="path27"
       style="fill:#ff5555" />
    <path
       d="m 382.3,110.4 c 0.3,-0.6 0.4,-1.1 1.1,-1.4 1.4,-0.6 1.2,1.2 0.8,2 -2.3,4.4 -0.6,-0.4 -1.9,-0.6 z"
       id="path28"
       style="fill:#ff5555" />
    <path
       d="m 352.3,152.8 c -1.1,-1.3 -0.2,-1.7 0.8,-2.9 1.1,1 1.2,2.7 -0.8,2.9 z"
       id="path29"
       style="fill:#ff5555" />
    <path
       d="m 328.8,125.4 c -1.1,-0.2 -1.6,-1.9 -0.5,-2.5 1.8,-1.1 2.6,2.2 0.5,2.5 z"
       id="path30"
       style="fill:#ff5555" />
    <path
       d="m 375.7,143.6 c -0.3,-0.1 -0.5,-0.3 -0.8,-0.4 1.1,-1.2 3.9,-1.8 5.4,-2.5 -0.9,1.7 -2.8,2.1 -4.6,2.9 z"
       id="path31"
       style="fill:#ff5555" />
    <path
       d="m 381,102.1 c -0.6,0.3 -1.2,0.9 -2,0.5 -0.5,-0.3 -0.7,-1.1 -0.2,-1.5 1,-0.9 2.2,-0.3 2.2,1 z"
       id="path32"
       style="fill:#ff5555" />
    <path
       d="m 361.5,101.5 c -0.8,0.6 -2.9,2.1 -2.8,-0.2 0.1,-2.2 2.1,-0.4 2.8,0.2 z"
       id="path33"
       style="fill:#ff5555" />
    <path
       d="m 365.9,146.6 c 0.7,1.6 -2,1.9 -2.9,2.2 -0.5,0.1 -0.2,-0.7 0,-0.8 0.9,-0.5 2.1,-1 2.9,-1.4 z"
       id="path34"
       style="fill:#ff5555" />
    <path
       d="m 354.6,100.8 c -0.1,0.3 -0.2,0.6 -0.2,1 -0.7,-1.2 -1.3,-3.2 -1.1,-4.6 0.8,0.7 1,2.5 1.3,3.6 z"
       id="path35"
       style="fill:#ff5555" />
  </g>
</svg>
